<svg width="184" height="199" viewBox="0 0 184 199" fill="none" xmlns="http://www.w3.org/2000/svg">
<path d="M114.44 34.3202L100.953 4.60528C98.1686 -1.53509 89.448 -1.53509 86.6633 4.60528L35.7779 116.732C34.0507 120.532 35.6087 125.016 39.3098 126.94L172.417 195.986C179.03 199.419 186.256 192.56 183.175 185.778L166.037 148.019C165.311 146.419 164.063 145.108 162.505 144.297L93.8894 108.71C89.2295 106.292 87.2767 100.652 89.448 95.872L114.432 40.813C115.37 38.7545 115.37 36.3858 114.432 34.3272L114.44 34.3202Z" fill="#0276E8"/>
<path d="M153.608 130.62L100.573 103.112C98.2391 101.907 97.2662 99.0795 98.3519 96.6897L118.627 52.0151C120.383 48.1518 125.86 48.1518 127.616 52.0151L160.376 124.191C162.315 128.456 157.768 132.771 153.608 130.613V130.62Z" fill="#0276E8"/>
<path d="M0.465461 192.003L26.303 135.055C27.4732 132.482 30.561 131.41 33.0708 132.714L75.0453 154.491C78.5984 156.331 78.5984 161.414 75.0453 163.254L7.22622 198.425C3.06684 200.583 -1.47323 196.275 0.458411 192.003H0.465461Z" fill="#0276E8"/>
</svg>
