<svg width="1137" height="263" viewBox="0 0 1137 263" fill="none" xmlns="http://www.w3.org/2000/svg">
<path d="M150.79 45.2218L133.02 6.06812C129.351 -2.02271 117.861 -2.02271 114.191 6.06812L47.1425 153.812C44.8667 158.818 46.9196 164.726 51.7963 167.262L227.184 258.24C235.897 262.764 245.419 253.725 241.359 244.789L218.778 195.037C217.821 192.928 216.177 191.2 214.124 190.132L123.713 143.241C117.573 140.054 115 132.623 117.861 126.325L150.781 53.777C152.017 51.0646 152.017 47.9435 150.781 45.231L150.79 45.2218Z" fill="#0276E8"/>
<path d="M202.401 172.111L132.519 135.865C129.444 134.276 128.162 130.551 129.593 127.402L156.308 68.5373C158.621 63.4469 165.839 63.4469 168.152 68.5373L211.318 163.639C213.873 169.259 207.881 174.944 202.401 172.102V172.111Z" fill="#0276E8"/>
<path d="M0.613312 252.991L34.6579 177.954C36.1999 174.563 40.2686 173.151 43.5755 174.87L98.8829 203.564C103.565 205.988 103.565 212.686 98.8829 215.11L9.52158 261.454C4.041 264.296 -1.9412 258.621 0.604023 252.991H0.613312Z" fill="#0276E8"/>
<path d="M332.31 66.7667H365.141L409.444 195.433H385.268L375.564 167.197H321.899L312.365 195.433H288.008L332.31 66.7667ZM370.079 149.191L357.375 113.008L349.256 88.1254H348.378L340.087 113.008L327.555 149.191H370.09H370.079Z" fill="#474747"/>
<path d="M420.528 66.7667H443.825V174.598H503.123V195.421H420.528V66.7667Z" fill="#474747"/>
<path d="M601.216 66.7667H662.989C677.46 66.7667 688.339 69.914 695.637 76.2088C702.936 82.5035 706.585 91.4211 706.585 102.95C706.585 110.716 704.612 117.364 700.678 122.895C696.732 128.425 691.236 132.075 684.177 133.842V135.074C690.882 136.248 695.797 138.894 698.91 143.011C702.023 147.127 703.586 152.84 703.586 160.127V180.95C703.586 183.185 703.677 185.534 703.848 188.009C704.019 190.483 704.646 192.947 705.695 195.421H682.227C681.406 193.779 680.847 191.715 680.551 189.24C680.254 186.766 680.106 183.949 680.106 180.768V164.175C680.106 158.177 678.692 153.582 675.875 150.411C673.047 147.23 667.402 145.645 658.93 145.645H624.514V195.421H601.216V66.7667ZM659.637 126.954C667.984 126.954 673.937 125.016 677.46 121.127C680.984 117.25 682.752 112.244 682.752 106.12C682.752 98.9474 680.63 93.8272 676.4 90.7711C672.169 87.7149 666.57 86.1868 659.637 86.1868H624.514V126.954H659.637Z" fill="#474747"/>
<path d="M748.755 190.928C740.75 186.868 734.638 181.11 730.395 173.629C726.165 166.16 724.044 157.299 724.044 147.07V66.7667H747.159V146.899C747.159 156.672 749.895 163.993 755.369 168.874C760.843 173.754 768.346 176.195 777.868 176.195C787.983 176.195 795.601 173.583 800.721 168.338C805.841 163.104 808.395 155.954 808.395 146.899V66.7667H831.522V147.07C831.522 157.425 829.344 166.342 824.988 173.811C820.632 181.281 814.451 187.017 806.457 191.019C798.452 195.022 788.861 197.018 777.686 197.018C766.51 197.018 756.738 194.988 748.744 190.928H748.755Z" fill="#474747"/>
<path d="M854.808 66.7667H878.105V195.433H854.808V66.7667Z" fill="#474747"/>
<path d="M918.588 191.726C910.879 188.191 905.086 183.288 901.197 176.993C897.309 170.698 895.313 163.434 895.199 155.201H919.021C919.26 162.374 921.667 168.144 926.262 172.5C930.846 176.856 938.145 179.034 948.146 179.034C956.14 179.034 962.56 177.563 967.383 174.621C972.207 171.679 974.625 167.209 974.625 161.211C974.625 156.626 973.655 153.034 971.717 150.446C969.778 147.857 966.482 145.77 961.83 144.174C957.177 142.589 950.803 141.14 942.683 139.852C927.973 137.503 916.854 133.557 909.328 128.026C901.802 122.496 898.027 114.205 898.027 103.144C898.027 91.5009 902.349 82.264 911.004 75.4333C919.648 68.614 931.622 65.193 946.925 65.193C956.926 65.193 965.49 66.7781 972.606 69.9596C979.722 73.1412 985.23 77.5544 989.107 83.1991C992.996 88.8439 994.934 95.4921 994.934 103.144H971.466C971.112 96.1991 968.581 91.1132 963.871 87.8746C959.161 84.636 953.22 83.0167 946.047 83.0167C938.875 83.0167 932.808 84.5789 928.577 87.6921C924.346 90.8167 922.225 94.9561 922.225 100.133C922.225 104.489 923.343 107.808 925.578 110.1C927.813 112.392 931.337 114.194 936.172 115.482C940.996 116.782 947.29 118.071 955.056 119.36C960.587 120.306 965.969 121.481 971.204 122.895C976.438 124.309 981.147 126.396 985.321 129.155C989.495 131.926 992.825 135.69 995.288 140.456C997.751 145.223 998.994 151.369 998.994 158.896C998.994 170.197 994.638 179.365 985.937 186.424C977.225 193.483 964.35 197.018 947.29 197.018C935.875 197.018 926.319 195.25 918.611 191.726H918.588Z" fill="#474747"/>
<path d="M1038.83 189.081C1029.24 183.79 1021.77 176.229 1016.41 166.399C1011.05 156.581 1008.38 144.778 1008.38 131.014C1008.38 117.25 1011.06 105.447 1016.41 95.6289C1021.76 85.8105 1029.24 78.2728 1038.83 73.0386C1048.42 67.8044 1059.63 65.1816 1072.44 65.1816C1085.26 65.1816 1096.65 67.8044 1106.24 73.0386C1115.83 78.2728 1123.28 85.8105 1128.57 95.6289C1133.86 105.459 1136.51 117.25 1136.51 131.014C1136.51 144.778 1133.83 156.604 1128.48 166.49C1123.12 176.377 1115.65 183.938 1106.06 189.172C1096.47 194.406 1085.26 197.029 1072.44 197.029C1059.63 197.029 1048.41 194.383 1038.83 189.092V189.081ZM1101.66 165.076C1108.9 157.197 1112.52 145.839 1112.52 131.014C1112.52 116.189 1108.9 104.866 1101.66 97.043C1094.42 89.2202 1084.69 85.3088 1072.46 85.3088C1060.22 85.3088 1050.66 89.2202 1043.42 97.043C1036.18 104.866 1032.57 116.189 1032.57 131.014C1032.57 145.839 1036.18 157.345 1043.42 165.168C1050.66 172.99 1060.33 176.902 1072.46 176.902C1084.58 176.902 1094.43 172.956 1101.66 165.076Z" fill="#474747"/>
<path d="M581.488 68.3517H463.77V88.65L522.623 88.5474L581.488 88.65V68.3517Z" fill="#474747"/>
<path d="M522.384 88.65V197.018H545.67V113.384L522.384 88.65Z" fill="#474747"/>
</svg>
