<svg width="152" height="70" viewBox="0 0 152 70" fill="none" xmlns="http://www.w3.org/2000/svg">
<path d="M34.2234 26.3991C34.2195 30.8621 30.8625 34.1723 26.3431 34.1684C21.8607 34.1645 18.5369 30.8231 18.5408 26.3232C18.5447 21.8603 21.9016 18.55 26.421 18.5539C30.9034 18.5578 34.2273 21.9011 34.2234 26.3991Z" fill="#0A0A0A"/>
<path d="M50.5958 26.3991C50.5919 30.8621 47.2349 34.1723 42.7155 34.1684C38.2331 34.1645 34.9093 30.8231 34.9132 26.3232C34.9171 21.8603 38.274 18.55 42.7934 18.5539C47.2758 18.5578 50.5997 21.9011 50.5958 26.3991Z" fill="#0A0A0A"/>
<path d="M110.358 18.5408C111.581 18.7705 112.855 18.8212 114.036 19.5085C114.167 20.4665 114.145 21.4343 114.07 22.3709C113.571 22.5286 113.361 22.2404 113.1 22.0652C111.871 21.2435 110.526 20.891 109.052 21.1305C108.051 21.2921 107.663 21.8432 107.794 22.8986C108.3 23.5762 109.124 23.6093 109.846 23.8429C110.489 24.0513 111.153 24.1934 111.795 24.4018C113.281 24.8827 114.321 25.7453 114.531 27.416C114.765 29.2717 114.134 30.7087 112.582 31.7174C110.641 32.9791 106.464 32.8331 104.45 31.4272C104.318 30.4556 104.217 29.4353 104.503 28.4364C105.019 28.3955 105.192 28.7206 105.447 28.8959C106.773 29.8072 108.226 30.2433 109.838 30.0739C110.57 29.998 111.164 29.6806 111.285 28.89C111.417 28.0333 110.839 27.7023 110.128 27.49C109.05 27.1668 107.92 27.0285 106.882 26.5593C105.052 25.7317 104.412 24.6997 104.462 22.6006C104.499 21.0156 105.525 19.6799 107.14 19.047C107.805 18.7881 108.508 18.7102 109.192 18.5408H110.358Z" fill="#0A0A0A"/>
<path d="M133.101 49.8943C130.358 50.0267 127.616 49.9566 124.775 49.9293V37.0935C125.718 36.8501 126.631 36.8832 127.686 37.0838V47.1916C129.571 47.472 131.349 47.1741 133.101 47.3785V49.8943Z" fill="#0A0A0A"/>
<path d="M34.2234 42.7715C34.2195 47.2345 30.8625 50.5447 26.3431 50.5408C21.8607 50.5369 18.5369 47.1955 18.5408 42.6956C18.5447 38.2326 21.9016 34.9224 26.421 34.9263C30.9034 34.9302 34.2273 38.2735 34.2234 42.7715Z" fill="#0A0A0A"/>
<path d="M42.6761 50.5408C38.1917 50.5369 34.8659 47.1955 34.8698 42.6975C34.8737 38.2326 38.2287 34.9224 42.7462 34.9244C47.2306 34.9283 50.5563 38.2696 50.5524 42.7676C50.5486 47.2325 47.1936 50.5427 42.6761 50.5408Z" fill="#0A0A0A"/>
<path d="M55.1595 32.3307V19.1288C55.2315 19.049 55.2724 18.9633 55.3192 18.9594C57.5078 18.8328 59.6984 18.7141 61.8812 19.0276C63.1741 19.2145 64.0834 19.8629 64.4008 21.2006C64.7143 22.5208 64.3151 23.5976 63.3396 24.4953C63.2247 24.6004 63.0962 24.6919 62.8937 24.8555C64.0834 25.3793 64.9402 26.0686 65.1972 27.3849C65.6178 29.5404 64.3113 31.6979 62.1518 32.1126C59.8814 32.5488 57.5876 32.2996 55.1595 32.3288V32.3307ZM58.1952 29.8013C59.3128 29.9279 60.2884 30.0214 61.2386 29.556C61.9279 29.2172 62.0934 28.6058 62.0506 27.9457C62.0097 27.2972 61.6884 26.717 60.9933 26.6118C60.082 26.4755 59.1512 26.4697 58.1952 26.6488V29.8033V29.8013ZM58.2594 24.1C59.2953 23.9286 60.3896 24.5361 61.114 23.4827C61.4625 22.9745 61.4742 22.293 61.0653 21.8451C60.2786 20.9864 59.2388 21.3564 58.238 21.3798C58.09 22.2988 58.0803 23.1147 58.2614 24.098L58.2594 24.1Z" fill="#0A0A0A"/>
<path d="M93.4469 49.9196V37.0838C94.6775 36.8443 95.8517 36.8891 97.0687 37.0604C98.4006 39.36 99.7188 41.6383 101.039 43.9184C101.109 43.9126 101.179 43.9048 101.249 43.8989V37.1597C102.227 36.8384 103.039 36.8774 103.931 37.1013V49.8398C103.029 50.0579 102.139 49.9449 101.134 49.9255C99.565 47.1371 97.9897 44.339 96.4164 41.5409C96.3619 41.5448 96.3093 41.5487 96.2548 41.5545V49.7833C95.289 50.0832 94.4341 49.9255 93.4469 49.9196Z" fill="#0A0A0A"/>
<path d="M79.2578 32.2879H75.4822C74.3996 30.6756 73.2897 29.0263 72.2032 27.4082C71.7261 27.305 71.3172 27.2349 70.7837 27.5582V32.2197C69.7303 32.4183 68.817 32.3794 67.8103 32.2665V19.0081C68.5717 18.7472 69.3213 18.8562 70.0496 18.8737C71.5664 18.9107 73.0853 18.7335 74.5982 18.9886C76.08 19.2398 77.1782 20.0167 77.5092 21.4557C77.8948 23.1225 77.6417 24.7309 76.191 25.9225C75.9457 26.1231 75.6964 26.3178 75.3673 26.5826C76.6291 28.4344 77.8675 30.2531 79.2539 32.2859L79.2578 32.2879ZM70.8285 24.799C72.0494 24.8185 73.2702 25.243 74.0939 24.0688C74.5437 23.4282 74.5534 22.6532 74.1134 21.9795C73.648 21.2629 72.1818 21.076 70.8285 21.52V24.799Z" fill="#0A0A0A"/>
<path d="M127.342 32.2723C126.306 32.3989 125.387 32.358 124.329 32.2937V26.4541H119.779V32.2158C118.723 32.4183 117.81 32.3697 116.799 32.2704V19.0023C117.75 18.7394 118.663 18.8932 119.644 18.8971C119.894 20.488 119.635 22.0029 119.825 23.6015C121.27 23.7806 122.696 23.7047 124.259 23.6463V19.0023C125.33 18.7647 126.278 18.8893 127.34 18.8932V32.2723H127.342Z" fill="#0A0A0A"/>
<path d="M77.998 43.2018C77.8909 46.1479 77.1918 48.5507 74.5787 49.647C70.9414 51.1736 66.3908 49.7541 65.9605 44.5493C65.8222 42.8883 65.8943 41.2741 66.6556 39.7495C67.7792 37.4985 70.1508 36.3185 72.8087 36.6885C75.3888 37.0487 77.3301 38.8479 77.7429 41.3228C77.8636 42.0472 78.107 42.7696 77.9999 43.2018H77.998ZM74.7111 43.3907C74.8065 42.5573 74.6683 41.6655 74.3003 40.8282C73.8719 39.8488 73.1378 39.1809 72.0201 39.1361C70.9083 39.0913 70.0535 39.621 69.6251 40.6277C68.8073 42.5534 68.7391 44.5162 69.738 46.403C70.5889 48.0075 72.5809 48.1905 73.7843 46.8255C74.6332 45.8617 74.7657 44.6914 74.7072 43.3888L74.7111 43.3907Z" fill="#0A0A0A"/>
<path d="M79.9666 37.1071C81.0297 36.8638 81.9449 36.8676 82.8192 37.0604C83.0976 37.4791 83.0081 37.8763 83.01 38.254C83.0198 40.6082 83.0003 42.9623 83.0217 45.3145C83.0353 46.9755 83.8512 47.7427 85.4829 47.6979C86.6143 47.6667 87.2451 47.1137 87.3445 45.9026C87.545 43.4258 87.3853 40.9412 87.4321 38.4585C87.4399 38.0145 87.3756 37.5569 87.6287 37.0916C88.503 36.8384 89.3851 36.9027 90.201 37.0293C90.4872 37.2824 90.5125 37.5453 90.5106 37.8023C90.4755 40.5731 90.6547 43.3479 90.4113 46.1148C90.2049 48.4514 88.7036 49.9547 86.3339 50.128C85.409 50.1961 84.4646 50.2623 83.5338 50.0248C81.1875 49.425 79.9841 47.9276 79.9724 45.517C79.9588 42.7481 79.9685 39.9812 79.9685 37.1071H79.9666Z" fill="#0A0A0A"/>
<path d="M64.3151 49.0512C62.0915 50.3538 59.7704 50.6381 57.4474 49.612C55.2822 48.6559 54.4702 46.7301 54.2891 44.4656C54.1859 43.1668 54.2521 41.9109 54.6454 40.6608C55.6833 37.3603 58.5125 36.3536 61.4216 36.7411C62.4127 36.8735 63.3902 37.1149 64.2957 37.8081C64.4183 38.7253 64.3482 39.7086 64.3268 40.6666C63.8167 40.8905 63.5713 40.5284 63.324 40.3375C62.0661 39.3639 60.6875 38.7993 59.2018 39.6229C57.6324 40.4933 57.3189 42.0958 57.3832 43.7276C57.4708 45.9337 58.3743 47.1585 60.082 47.5888C61.3866 47.916 62.3835 47.2364 63.3688 46.5452C63.62 46.3699 63.7719 46.0253 64.2392 46.0934C64.4651 47.0553 64.3405 48.0328 64.3171 49.0551L64.3151 49.0512Z" fill="#0A0A0A"/>
<path d="M116.383 46.0934C116.494 47.0845 116.474 48.0406 116.394 49.0609C114.196 50.3577 111.873 50.6342 109.55 49.6159C107.385 48.6656 106.567 46.7399 106.386 44.4733C106.283 43.1746 106.345 41.9186 106.738 40.6686C107.778 37.3622 110.6 36.3575 113.511 36.7411C114.529 36.8754 115.538 37.1227 116.414 37.8354C116.435 38.7934 116.558 39.7709 116.338 40.7328C115.886 40.8087 115.656 40.5264 115.423 40.3434C114.169 39.3659 112.79 38.7993 111.303 39.619C109.729 40.4855 109.416 42.088 109.478 43.7198C109.562 45.924 110.465 47.1527 112.169 47.5849C113.474 47.916 114.471 47.2383 115.458 46.5471C115.709 46.3718 115.861 46.0291 116.383 46.0934Z" fill="#0A0A0A"/>
<path d="M89.4864 32.2723V21.5414H86.0184C85.6465 20.6418 85.8432 19.8532 85.8432 18.9653H96.1749C96.4359 19.785 96.4378 20.5873 96.1457 21.4946H92.5921V32.21C91.5192 32.4222 90.606 32.3638 89.4883 32.2704L89.4864 32.2723Z" fill="#0A0A0A"/>
<path d="M80.6442 18.9691C81.6353 18.79 82.5232 18.8523 83.5046 18.9263V32.2372C82.5661 32.4164 81.6528 32.3697 80.6442 32.2704V18.9691Z" fill="#0A0A0A"/>
<path d="M98.531 18.9633C99.5085 18.8095 100.396 18.8231 101.384 18.9536V32.2392C100.459 32.4222 99.5455 32.3638 98.531 32.2801V18.9633Z" fill="#0A0A0A"/>
<path d="M119.134 36.9572C120.123 36.8209 121.011 36.8131 121.995 36.9631V50.2409C121.058 50.422 120.145 50.3714 119.134 50.274V36.9572Z" fill="#0A0A0A"/>
</svg>
