<svg width="96" height="80" viewBox="0 0 96 80" fill="none" xmlns="http://www.w3.org/2000/svg">
<g clip-path="url(#clip0_1872_852)">
<path d="M40.0677 34.6554H37.5415C37.4255 33.7622 37.4662 32.9231 37.5099 32.0841L37.4978 32.0961C38.2932 32.0042 39.0991 32.1504 39.911 31.9997C40.2304 31.3535 39.911 30.6425 40.1535 29.9707C40.7817 29.6257 41.5288 29.9978 42.2399 29.698C42.383 28.999 42.3423 28.2895 42.2685 27.5755C41.5017 27.2095 40.6702 27.6207 39.914 27.2321C39.8372 26.4834 39.8462 25.7408 39.908 24.9771C40.6702 24.6878 41.44 24.959 42.3046 24.7541V20.0543C44.0309 19.9594 45.6201 20.0226 47.3058 20.0076V24.7827H52.0448V20.0784H56.9992C57.1498 21.6209 56.9631 23.1935 57.1077 24.7993C58.6773 24.8761 60.1686 24.8355 61.7202 24.8249C61.8904 23.2116 61.7006 21.6585 61.8392 20.0663H66.7077V39.4321H40.0586V34.6494C40.7727 34.5982 41.4987 34.7503 42.2534 34.5334C42.3378 33.7908 42.3604 33.0828 42.2293 32.3206C41.5078 32.2031 40.8359 32.1594 40.152 32.3507C40.0255 33.1611 40.1294 33.9128 40.0677 34.6585V34.6554ZM49.5758 34.4099C49.6602 33.6989 49.6798 33.0256 49.5578 32.301C48.8001 32.3206 48.1147 32.2016 47.3946 32.3869C47.3389 33.0738 47.2922 33.729 47.4338 34.4415C48.1553 34.4913 48.8362 34.55 49.5758 34.4084V34.4099ZM47.0572 27.5032C46.3206 27.446 45.6623 27.3782 44.9603 27.5514C44.9046 28.2459 44.8353 28.9026 45.0101 29.5986C45.7135 29.6453 46.3733 29.7146 47.0768 29.5459C47.1506 28.871 47.1747 28.2353 47.0572 27.5032ZM44.6214 29.8953C43.8923 29.8637 43.2325 29.7778 42.5276 29.9601C42.4869 30.6666 42.3995 31.3249 42.5954 32.0223C43.3033 32.0615 43.9631 32.1428 44.6425 31.9666C44.7299 31.2752 44.7434 30.6365 44.6214 29.8953Z" fill="#0A0A0A"/>
<path d="M37.5084 32.0841C36.7643 32.0962 36.0186 32.1383 35.2594 32.054C34.9521 31.3641 35.2519 30.6395 35.0169 29.9044C34.2592 29.7462 33.4638 29.8667 32.6805 29.8261L32.6895 29.8351C32.5751 28.2143 32.6835 26.5964 32.6504 24.8807C34.3164 24.8701 35.874 24.7466 37.4979 24.8445V32.0962L37.5099 32.0841H37.5084Z" fill="#0A0A0A"/>
<path d="M25.7798 52.0871C24.5853 52.2784 24.4256 52.188 23.8954 51.1968C23.6152 50.6726 23.4374 50.0821 23.0066 49.6603C22.6888 49.5865 22.3965 49.5474 22.0214 49.7085V52.0539C21.553 52.2302 21.1643 52.1549 20.6763 52.1383C20.5572 50.2358 20.6763 48.3634 20.6085 46.5858C20.5 46.2379 20.1596 46.3599 20.0436 46.14C19.9924 45.8462 19.9532 45.5525 20.1159 45.1955C21.3104 45.1382 22.5441 45.0343 23.7462 45.2241C25.3219 45.4726 25.932 47.5273 24.8489 48.7219C24.7163 48.868 24.5551 48.987 24.3668 49.1542C24.8745 49.808 24.9182 50.772 25.8175 51.1577C25.9033 51.477 25.9109 51.7903 25.7813 52.0871H25.7798ZM22.0621 48.27C23.0443 48.4688 23.5278 48.3844 23.7899 47.9913C24.0159 47.6539 24.0053 46.9203 23.7251 46.6491C23.2341 46.1731 22.6496 46.2635 22.0531 46.381C22.0079 47.0393 21.9913 47.6343 22.0621 48.27Z" fill="#0A0A0A"/>
<path d="M48.3211 46.4819C48.0605 46.2469 47.7803 46.3509 47.6688 46.1279C47.5739 45.8447 47.595 45.5555 47.7095 45.1985C48.9598 45.1443 50.2176 45.0117 51.4393 45.2452C52.9351 45.5314 53.512 47.4821 52.5193 48.6616C52.3762 48.8303 52.1924 48.9644 52.0418 49.1015C52.7046 50.6967 52.7603 50.7781 53.4186 51.123C53.5135 51.4333 53.5331 51.7466 53.4036 52.0524C52.3039 52.3115 52.0463 52.2016 51.5718 51.2978C51.3157 50.8097 51.0566 50.3231 50.7945 49.8381C50.7584 49.7718 50.7057 49.7161 50.6921 49.6995C50.3426 49.5594 50.0504 49.57 49.713 49.6558C49.484 50.4241 49.731 51.2375 49.5593 52.0374C49.1888 52.2513 48.8016 52.1684 48.3211 52.1006V46.4819ZM49.7039 48.3167C50.317 48.3618 50.9301 48.5667 51.3941 48.0079C51.6878 47.6554 51.6758 46.9986 51.3654 46.6747C50.8909 46.1791 50.3035 46.2499 49.6874 46.393C49.5925 47.0483 49.5759 47.6614 49.7039 48.3167Z" fill="#0A0A0A"/>
<path d="M68.773 46.5076C68.6314 46.2349 68.3437 46.3434 68.2322 46.1219C68.187 45.8433 68.1494 45.5495 68.291 45.2211C68.8423 45.1413 69.3982 45.0615 70.0429 45.3642V50.8067C70.2071 51.0794 70.5445 50.998 70.6545 51.1909C70.7268 51.4771 70.7268 51.7482 70.6228 52.1143C69.9992 52.1594 69.3439 52.3598 68.7866 51.7874C67.5062 52.4999 66.5526 52.4517 65.7769 51.6397C64.9378 50.76 64.8188 49.0684 65.5193 47.9883C66.1625 46.9971 67.1266 46.7908 68.7323 47.3059C68.8513 47.0423 68.7911 46.7727 68.773 46.5091V46.5076ZM68.8001 49.6107C68.8378 49.3471 68.7534 49.0593 68.6194 48.7882C68.425 48.3965 68.1042 48.1706 67.6673 48.1661C67.238 48.16 66.872 48.3363 66.6701 48.7234C66.3478 49.3395 66.3327 49.9858 66.6746 50.5928C67.0919 51.3325 68.0575 51.352 68.5425 50.6561C68.7504 50.3578 68.8257 50.0204 68.8016 49.6122L68.8001 49.6107Z" fill="#0A0A0A"/>
<path d="M31.8972 53.6959C31.9363 53.357 32.09 53.1326 32.2933 52.8825C32.6518 52.9006 33.0119 53.238 33.4126 52.9834C33.7349 52.7771 33.8615 52.4622 33.9594 52.0811C33.6566 51.3942 33.3689 50.6742 33.0239 49.9797C32.697 49.3215 32.5916 48.5321 31.9363 48.0847C31.8896 47.7865 31.8881 47.5153 31.9574 47.2321C32.3204 47.0212 32.6955 47.1583 33.1354 47.1191C33.8479 48.0621 34.0332 49.2582 34.6041 50.3488C35.1102 49.2898 35.2624 48.151 35.8318 47.2291C36.2852 47.0709 36.6769 47.0845 37.067 47.1764C37.2719 47.4596 37.1996 47.7594 37.1664 48.1088C36.7582 48.2444 36.6558 48.6436 36.5096 49.0126C35.9809 50.3382 35.4853 51.6759 34.9159 52.9849C34.3766 54.2262 33.1263 54.5937 32.0674 53.8857C32.0086 53.8466 31.968 53.7758 31.8972 53.6944V53.6959Z" fill="#0A0A0A"/>
<path d="M41.9145 50.7344C42.0787 51.0793 42.3649 50.9919 42.4749 51.2119C42.5246 51.4875 42.5622 51.7798 42.4131 52.1097C41.7895 52.1744 41.1478 52.3492 40.6055 51.7511C39.9788 52.2241 39.3025 52.4802 38.5177 52.1654C37.9031 51.9199 37.534 51.4815 37.4843 50.8187C37.4346 50.1454 37.7645 49.6769 38.3535 49.3711C39.0343 49.0201 39.7966 49.0156 40.5271 48.8966C40.4142 48.0937 40.2937 48.0184 39.3446 48.1223C39.1021 48.2082 39.1142 48.5155 38.8762 48.6149C38.593 48.6721 38.2977 48.6902 38.0085 48.5878C37.7524 47.8436 37.9226 47.4053 38.602 47.1643C39.2528 46.9338 39.9216 46.9007 40.5934 47.095C41.4234 47.336 41.8467 47.8451 41.9025 48.7128C41.925 49.0623 41.9145 49.4133 41.916 49.7643C41.9175 50.1137 41.916 50.4632 41.916 50.7359L41.9145 50.7344ZM38.9289 50.3276C38.7903 50.8895 38.9605 51.1742 39.4847 51.2013C40.1069 51.2345 40.497 50.7795 40.5437 49.9405C39.9577 49.8546 39.4215 49.9375 38.9289 50.3276Z" fill="#0A0A0A"/>
<path d="M64.2659 50.7705C64.3789 51.0763 64.6681 50.998 64.7826 51.2104C64.8489 51.4845 64.8745 51.7753 64.7254 52.1022C64.1002 52.1835 63.46 52.3447 62.9237 51.7452C62.2986 52.2377 61.6192 52.4727 60.8314 52.1669C60.2063 51.9244 59.8477 51.465 59.798 50.8127C59.7483 50.1785 60.0677 49.7131 60.616 49.3997C61.1086 49.1181 61.6629 49.0729 62.2037 48.9719C62.4206 48.9313 62.6586 48.9975 62.8544 48.8469C62.7339 48.0922 62.6014 48.0139 61.6207 48.1344C61.5153 48.2745 61.3963 48.4327 61.2652 48.6089C61.0995 48.624 60.9263 48.6541 60.7546 48.6526C60.6085 48.6526 60.4623 48.6164 60.3343 48.5984C60.0978 47.7488 60.2816 47.3752 61.0287 47.1327C61.4897 46.9835 61.9627 46.9444 62.4417 46.9956C63.6272 47.1236 64.171 47.7186 64.2282 48.9117C64.2584 49.5609 64.18 50.2147 64.2689 50.772L64.2659 50.7705ZM61.2276 50.3472C61.1086 50.8609 61.2607 51.1592 61.7804 51.1998C62.401 51.248 62.8032 50.7961 62.868 49.9616C62.2534 49.8336 61.7066 49.9435 61.2261 50.3472H61.2276Z" fill="#0A0A0A"/>
<path d="M53.738 49.5851C53.7636 48.0892 55.0003 46.9504 56.5699 46.979C58.1411 47.0077 59.3205 48.1902 59.2844 49.701C59.2482 51.221 58.0447 52.3266 56.4524 52.3025C54.8873 52.2784 53.7124 51.102 53.738 49.5851ZM55.1072 49.6408C55.1072 50.5069 55.7294 51.1682 56.5338 51.1562C57.2945 51.1441 57.9287 50.4828 57.9498 49.6815C57.9708 48.8545 57.3216 48.1404 56.5353 48.1284C55.7309 48.1148 55.1072 48.7761 55.1057 49.6408H55.1072Z" fill="#0A0A0A"/>
<path d="M26.1338 49.6061C26.1504 48.0847 27.354 46.9549 28.9312 46.979C30.5053 47.0031 31.6758 48.16 31.6622 49.6799C31.6501 51.1833 30.4345 52.3191 28.8574 52.3025C27.2666 52.2859 26.1173 51.1486 26.1338 49.6061ZM30.2989 49.6317C30.2944 48.7701 29.6633 48.1103 28.8589 48.1269C28.1042 48.1419 27.4685 48.8153 27.4534 49.6136C27.4368 50.4391 28.0966 51.1516 28.8799 51.1547C29.6889 51.1577 30.3035 50.4964 30.2989 49.6302V49.6317Z" fill="#0A0A0A"/>
<path d="M72.5539 48.4312C72.7483 48.8695 73.1233 48.9253 73.4367 49.0578C73.8509 49.2341 74.2863 49.3681 74.6387 49.6634C75.3965 50.2945 75.3558 51.337 74.5529 51.9139C73.5722 52.6174 71.965 52.3537 71.1816 51.349C71.2449 51.0462 71.4543 50.8383 71.7134 50.6003C72.2647 50.882 72.7769 51.3671 73.4849 51.1758C73.6747 51.1246 73.7801 50.9965 73.7696 50.7675C73.6717 50.409 73.3116 50.3578 73.0284 50.2283C72.5961 50.0294 72.1397 49.8758 71.7661 49.57C70.9165 48.8756 71.0506 47.7036 72.0418 47.2291C72.7829 46.8751 73.5512 46.8872 74.3028 47.1975C74.8978 47.443 75.0485 47.806 74.9084 48.5381C74.6116 48.7234 74.2923 48.6601 73.9428 48.6029C73.8389 48.4553 73.7259 48.2971 73.6054 48.1269C73.2122 48.0742 72.8055 47.925 72.5509 48.4297L72.5539 48.4312Z" fill="#0A0A0A"/>
<path d="M32.6745 37.0536C32.6097 36.2552 32.6278 35.4584 32.6684 34.6027C33.4924 34.4265 34.2697 34.4416 35.05 34.5832C35.2895 35.3363 35.0229 36.0805 35.2368 36.799C35.9629 37.0732 36.7477 36.7523 37.5234 37.0581C37.5958 37.8414 37.5656 38.6247 37.5355 39.4427C36.6889 39.5436 35.9267 39.5376 35.1313 39.4532C34.9611 38.6895 35.1359 37.9333 35.0108 37.1651C34.2275 37.0009 33.4487 37.159 32.6865 37.0641L32.6745 37.0521V37.0536Z" fill="#0A0A0A"/>
<path d="M37.4195 20.0784C37.5084 20.9008 37.528 21.6103 37.3999 22.4147C35.8333 22.4629 34.2998 22.5503 32.7031 22.4614C32.5871 21.6555 32.6383 20.8933 32.6669 20.0633C34.2501 19.9021 35.7866 20.1085 37.4195 20.0769V20.0784Z" fill="#0A0A0A"/>
<path d="M44.5807 50.7976C44.766 51.0823 45.0131 51.007 45.12 51.2495C45.1923 51.486 45.2149 51.7753 45.0492 52.0946C44.5506 52.2181 44.04 52.197 43.567 52.0991C43.1572 51.8144 43.2084 51.4213 43.2069 51.0492C43.2039 49.5248 43.2069 48.0003 43.2069 46.5964C43.0864 46.2439 42.8138 46.3207 42.6737 46.1791C42.5637 45.8839 42.5833 45.5916 42.6677 45.2617C43.1904 45.087 43.7236 45.1307 44.2268 45.2301C44.6244 45.5525 44.5762 45.9682 44.5777 46.3644C44.5823 47.8647 44.5792 49.3636 44.5792 50.7991L44.5807 50.7976Z" fill="#0A0A0A"/>
<path d="M32.2105 55.3799C32.7211 55.1706 32.923 55.4176 33.1203 55.7008C33.7199 56.5624 34.3269 57.4196 35.0048 58.3821C35.2458 57.3352 34.94 56.3515 35.2082 55.4673C35.5516 55.2112 35.8589 55.2323 36.1617 55.3453C36.4735 55.7445 36.0803 55.8665 35.8438 56.1316V59.7815C35.3723 60.0662 35.1404 59.8313 34.9219 59.5179C34.2908 58.6171 33.6536 57.7208 32.9305 56.6995C32.8085 57.8082 32.9682 58.7979 32.8281 59.7288C32.4786 59.9638 32.1728 59.9939 31.861 59.8523C31.5296 59.4185 32.0599 59.3146 32.209 58.9063V55.3784L32.2105 55.3799Z" fill="#0A0A0A"/>
<path d="M51.3217 58.2496C51.0491 58.1306 50.8322 58.1095 50.5716 58.2209C50.2914 58.697 50.5987 59.2905 50.3727 59.7725C50.1829 59.9623 49.9976 59.9367 49.731 59.8147V56.2491C49.5533 55.8725 49.0622 55.7897 49.4327 55.3122C50.1272 55.2398 50.903 55.1871 51.6592 55.3348C52.6368 55.5246 53.036 56.6378 52.4651 57.4587C52.3521 57.6214 52.2014 57.7555 52.0915 57.8775C52.1322 58.6608 52.8929 59.0871 53.048 59.7845C52.6835 60.003 52.4319 59.9096 52.1352 59.7394C51.87 59.2558 51.5838 58.7331 51.3202 58.2511L51.3217 58.2496ZM50.5761 55.9614C50.3757 56.4404 50.4345 56.9164 50.5339 57.4422C51.0129 57.5039 51.4618 57.5672 51.7917 57.165C52.0162 56.8923 52.0116 56.5429 51.8233 56.2551C51.5206 55.7927 51.0431 55.9252 50.5761 55.9599V55.9614Z" fill="#0A0A0A"/>
<path d="M46.1911 59.1881C46.5993 59.3749 47.0015 59.2589 47.348 59.2936C47.6733 59.1716 47.7743 58.6579 48.2593 58.9788C48.431 59.2017 48.3587 59.4774 48.178 59.8223C47.3344 60.0468 46.4532 59.9714 45.5042 59.854C45.218 58.6217 45.4635 57.3895 45.3355 56.1408C45.2767 55.9148 44.8293 55.7838 45.1426 55.3002C46.0178 55.2354 46.9744 55.2701 47.8692 55.2897C48.2021 55.6331 48.1915 55.9374 48.1087 56.2311C47.6613 56.546 47.5061 56.1679 47.2998 55.957C46.9397 55.9118 46.5933 55.8982 46.2167 55.9751C46.06 56.3517 46.1188 56.7373 46.17 57.1229C46.637 57.37 47.1431 57.1229 47.5799 57.3172C47.7351 57.4649 47.7487 57.62 47.6191 57.8083C47.1898 58.0117 46.6912 57.7887 46.1926 57.9755C46.0841 58.3657 46.0962 58.7709 46.1926 59.1881H46.1911Z" fill="#0A0A0A"/>
<path d="M26.7921 56.1226C26.6068 55.8741 26.191 55.7596 26.4923 55.3544C26.7619 55.2188 27.0451 55.2414 27.3163 55.3634C27.592 55.6075 27.5528 55.9193 27.5558 56.216C27.5633 56.8924 27.5453 57.5688 27.5709 58.2436C27.595 58.9275 27.967 59.2996 28.5771 59.3041C29.1661 59.3086 29.5894 58.9109 29.6225 58.2572C29.6542 57.6079 29.6301 56.9557 29.6361 56.3049C29.6391 56.0323 29.603 55.7536 29.7054 55.4945C30.0082 55.2068 30.335 55.2279 30.6649 55.3574C30.9045 55.7476 30.6032 55.9118 30.3366 56.1016C30.3366 56.8352 30.3516 57.5597 30.3335 58.2843C30.3049 59.3478 29.6828 59.9669 28.6479 59.9925C27.5859 60.0196 26.8584 59.3945 26.8011 58.346C26.7619 57.623 26.7936 56.8954 26.7936 56.1257L26.7921 56.1226Z" fill="#0A0A0A"/>
<path d="M39.7664 55.3965C40.506 55.1736 40.7531 55.4477 40.9127 55.9072C41.2396 56.8457 41.5846 57.7796 41.9567 58.81C42.4733 57.6275 42.7505 56.457 43.222 55.4718C43.5127 55.2579 43.7281 55.2519 44.0987 55.3604C43.8065 56.0985 43.5142 56.82 43.2325 57.5446C42.9358 58.3098 42.6496 59.0811 42.3845 59.7831C42.1028 59.9729 41.8889 59.9548 41.6057 59.8403C40.9383 58.4364 40.5934 56.8592 39.7649 55.395L39.7664 55.3965Z" fill="#0A0A0A"/>
<path d="M56.7688 56.3983C56.2235 56.7191 56.1738 56.1753 55.9418 56.0081C55.1314 55.8485 55.1208 55.853 54.7563 56.4194C54.8015 56.796 55.0892 56.9481 55.3859 57.0972C55.6993 57.2539 56.0276 57.3895 56.3184 57.5838C56.832 57.9272 57.0249 58.4274 56.8953 58.9425C56.7567 59.4954 56.3184 59.884 55.7279 59.9744C55.0877 60.0738 54.5378 59.8674 53.9775 59.3176C53.9835 59.0932 54.1161 58.9606 54.3224 58.8582C54.8768 59.1233 55.4221 59.655 56.0608 59.0269C56.2822 58.5705 56.0623 58.2948 55.6993 58.0884C55.3724 57.9031 55.0214 57.7585 54.7005 57.5642C54.1296 57.2192 53.9157 56.7387 54.0438 56.1738C54.1597 55.6647 54.6448 55.2971 55.2745 55.2399C56.2973 55.1465 56.7989 55.5261 56.7673 56.3968L56.7688 56.3983Z" fill="#0A0A0A"/>
<path d="M29.3092 37.043C28.4566 37.0882 27.7125 37.0957 26.9232 37.034C26.7755 36.222 26.8313 35.4643 26.893 34.6554C27.7185 34.5891 28.4627 34.5967 29.2776 34.6494C29.4313 35.4418 29.377 36.1964 29.3107 37.043H29.3092Z" fill="#0A0A0A"/>
<path d="M62.1766 59.8313V56.0654C61.8663 55.862 61.6162 55.9524 61.3827 55.9313C61.1462 56.0834 61.092 56.57 60.5979 56.222C60.4428 56.0262 60.5362 55.743 60.6461 55.3197C61.8813 55.2218 63.1286 55.264 64.3126 55.2926C64.5672 55.6752 64.5506 55.9584 64.4422 56.2597C64.0791 56.4721 63.8938 56.2507 63.7764 55.9855C63.5112 55.9057 63.2913 55.9042 62.9961 56.0096C62.8123 57.2328 63.0307 58.5087 62.8816 59.7108C62.7008 59.9668 62.5095 59.9277 62.1781 59.8298L62.1766 59.8313Z" fill="#0A0A0A"/>
<path d="M29.3093 27.22C28.5154 27.3405 27.8059 27.3134 27.0362 27.2486C26.8373 26.4864 26.9277 25.7558 26.9699 24.9725C27.7517 24.8219 28.4808 24.8701 29.2656 24.9318C29.4011 25.7167 29.3454 26.4442 29.3078 27.22H29.3093Z" fill="#0A0A0A"/>
<path d="M32.6865 37.0656C32.6036 37.8098 32.7392 38.5645 32.5871 39.3794C31.8746 39.5195 31.1606 39.4442 30.3787 39.4291C30.195 38.6684 30.2778 37.9378 30.32 37.162C31.1319 36.9798 31.9107 37.1289 32.6744 37.0536L32.6865 37.0656Z" fill="#0A0A0A"/>
<path d="M32.679 29.826V31.944C31.8806 32.1805 31.1756 32.0781 30.4029 32.0464C30.2266 31.3339 30.2793 30.6606 30.3547 29.939C31.1561 29.7553 31.9273 29.8863 32.688 29.8351L32.679 29.826Z" fill="#0A0A0A"/>
<path d="M67.6356 59.6913C67.369 59.9579 67.1837 59.9398 67.0135 59.86C66.8629 59.7259 66.8493 59.5677 66.8674 59.4216C67.0587 57.977 66.4456 56.8548 65.4559 55.8847C65.3023 55.734 65.3399 55.5714 65.4153 55.3168C66.6625 55.2339 66.5526 56.5836 67.25 57.0597C67.9414 56.6092 67.827 55.255 69.0426 55.2957C69.1736 55.5442 69.2294 55.7401 69.029 55.8892C68.4415 56.3276 68.2352 57.0325 67.8179 57.5884C67.5859 57.8972 67.6417 58.2572 67.6371 58.6037C67.6311 58.9788 67.6371 59.3523 67.6371 59.6898L67.6356 59.6913Z" fill="#0A0A0A"/>
<path d="M58.138 59.8449C57.8398 59.4036 58.3429 59.3252 58.4273 59.045V56.1378C58.3233 55.8922 57.8473 55.8124 58.1245 55.368C58.5342 55.1707 59.0027 55.3093 59.426 55.2852C59.8463 55.7205 59.426 55.8681 59.2136 56.0896V59.0104C59.2091 59.3207 59.8402 59.3734 59.5028 59.8494C59.0569 60.0016 58.5809 60.0091 58.1365 59.8464L58.138 59.8449Z" fill="#0A0A0A"/>
<path d="M38.5463 59.024C38.6276 59.3102 39.0901 59.4322 38.7948 59.8494C38.3715 60.0061 37.9136 59.9775 37.4707 59.8705C37.186 59.4623 37.5189 59.3252 37.7569 59.1625C37.7569 58.1442 37.7569 57.1455 37.7569 56.1483C37.526 55.9063 37.421 55.6391 37.4421 55.3469C37.8985 55.2279 38.358 55.2264 38.7948 55.3439C39.0524 55.7325 38.7436 55.9088 38.5463 56.085V59.024Z" fill="#0A0A0A"/>
</g>
<defs>
<clipPath id="clip0_1872_852">
<rect width="55.1827" height="40" fill="white" transform="translate(20 20)"/>
</clipPath>
</defs>
</svg>
