<svg width="224" height="32" viewBox="0 0 224 32" fill="none" xmlns="http://www.w3.org/2000/svg">
<g clip-path="url(#clip0_1872_848)">
<path d="M37.8866 3.95879C37.6066 4.13812 37.3106 4.41723 36.998 4.79717C36.5726 5.31201 36.1425 5.92127 35.7061 6.62535C35.2702 7.33027 34.8847 8.05088 34.549 8.78885L26.3644 26.4999L20.0585 12.009L12.9141 26.4999L4.89699 8.72212C4.58378 8.00667 4.20377 7.27986 3.75642 6.54147C3.30901 5.8035 2.89534 5.2114 2.5153 4.76411C2.20218 4.38397 1.86637 4.09845 1.50894 3.90859C1.15111 3.71893 0.64793 3.53402 -3.05176e-05 3.35511V3.0198H12.3098V3.35511C11.8177 3.55613 11.4658 3.78587 11.2532 4.04267C11.0406 4.30009 10.9345 4.64139 10.9345 5.06554C10.9345 5.42357 11.0355 5.83718 11.2367 6.30678L16.4694 18.3155L19.8906 11.439L17.9116 6.80984C17.33 5.4684 16.7821 4.54037 16.2679 4.02552C16.0889 3.84723 15.8823 3.70736 15.6475 3.60695C15.4128 3.50593 15.0825 3.42184 14.6578 3.35511V3.0198H26.8007V3.35511C25.5934 3.55613 24.9893 4.20506 24.9893 5.30044C24.9893 5.56881 25.0504 5.93779 25.1735 6.4078C25.2963 6.8772 25.4591 7.35836 25.6603 7.84986L29.853 17.8123L30.6914 16.1013C31.5415 14.3353 32.1954 12.7027 32.6539 11.2042C33.1119 9.70615 33.3416 8.38619 33.3416 7.24618C33.3416 5.94936 33.0615 4.95397 32.503 4.26084C32.3014 4.01498 32.0779 3.83049 31.832 3.70736C31.5857 3.58485 31.2168 3.46709 30.725 3.35511V3.0198H39.1443V3.35511C38.5853 3.57865 38.1661 3.78029 37.8866 3.95879Z" fill="#0A0A0A"/>
<path d="M50.7351 20.2105C50.5783 20.5795 50.4219 20.9098 50.2657 21.2002C50.1089 21.4908 49.9354 21.7703 49.7453 22.0387C49.5554 22.307 49.3373 22.5977 49.0914 22.9109C48.3082 23.8499 47.3692 24.5711 46.274 25.0744C45.1782 25.5774 43.9703 25.8289 42.6511 25.8289C41.3985 25.8289 40.2304 25.6107 39.1462 25.1748C38.0614 24.7385 37.1219 24.1348 36.3282 23.3631C35.5345 22.5921 34.9142 21.6812 34.4667 20.6298C34.0188 19.5792 33.7957 18.4386 33.7957 17.2081C33.7957 15.9564 34.031 14.7821 34.5004 13.6864C34.97 12.5911 35.6183 11.635 36.4458 10.8185C37.2732 10.0022 38.2403 9.3593 39.3472 8.88991C40.454 8.4199 41.6448 8.18562 42.9197 8.18562C44.0376 8.18562 45.0665 8.35296 46.0055 8.68827C46.9445 9.02399 47.7719 9.50516 48.4877 10.1305C49.203 10.7574 49.7901 11.5173 50.2486 12.4116C50.707 13.3063 51.0035 14.3016 51.1378 15.3969H40.0348C40.0569 19.5792 41.9243 21.6697 45.6365 21.6697C47.0455 21.6697 48.2415 21.3234 49.2257 20.6298C49.6056 20.3839 49.9073 20.1326 50.1314 19.8747C50.3546 19.6184 50.6347 19.2323 50.9698 18.7181L51.2721 18.8518C51.0704 19.3886 50.8915 19.8415 50.7351 20.2105ZM45.2004 14.0111C45.2004 13.7401 45.1948 13.4978 45.1836 13.2827C45.172 13.068 45.1611 12.87 45.1499 12.6895C45.139 12.5091 45.1218 12.306 45.0997 12.0793C45.0103 10.8594 44.7865 9.97207 44.4291 9.41818C44.0713 8.86533 43.5571 8.58766 42.886 8.58766C41.9471 8.58766 41.2368 9.13618 40.7562 10.232C40.275 11.3284 40.0348 12.9163 40.0348 14.9943H45.2004V14.0111Z" fill="#0A0A0A"/>
<path d="M69.6271 25.2419C68.7782 25.6551 67.9301 25.8621 67.0822 25.8621C65.274 25.8621 64.158 24.789 63.7349 22.6421C63.3326 23.2015 62.998 23.6151 62.73 23.8837C62.462 24.1515 62.1273 24.4201 61.7257 24.6885C60.6097 25.4485 59.2707 25.829 57.7088 25.829C56.3029 25.829 55.1532 25.4932 54.2605 24.8227C53.3678 24.1515 52.922 23.2689 52.922 22.1725C52.922 20.7635 53.7041 19.6125 55.2699 18.7177C57.3041 17.5771 60.1221 16.4818 63.7227 15.4303V13.686C63.7227 12.0317 63.6438 10.9249 63.4876 10.3654C63.3754 9.96335 63.1632 9.64457 62.8506 9.40987C62.537 9.17456 62.1681 9.05741 61.7437 9.05741C61.4301 9.05741 61.1231 9.1132 60.8208 9.22476C60.5192 9.33735 60.256 9.48218 60.0326 9.66109C59.7422 9.90736 59.524 10.2311 59.3788 10.6338C59.2329 11.0364 59.1048 11.5959 58.9933 12.3112L58.859 13.3175C58.7247 14.3908 58.3392 15.2352 57.7018 15.85C57.0644 16.4652 56.2763 16.7724 55.3367 16.7724C54.6435 16.7724 54.0791 16.5542 53.6428 16.1184C53.2069 15.6821 52.9889 15.1176 52.9889 14.4239C52.9889 12.7923 54.2851 11.3832 56.88 10.198C58.2662 9.54953 59.7029 9.05184 61.1904 8.70496C62.6773 8.3587 64.044 8.18536 65.2902 8.18536C66.5795 8.18536 67.5919 8.48679 68.3253 9.09109C68.8143 9.49334 69.1535 9.96872 69.3426 10.5166C69.5312 11.0645 69.626 11.8306 69.626 12.8138V20.5293C69.626 21.1777 69.6372 21.6417 69.6597 21.9213C69.682 22.2012 69.7487 22.4411 69.8609 22.6421C69.9498 22.8662 70.1066 23.0396 70.3303 23.1623C70.5541 23.2855 70.8115 23.3468 71.102 23.3468C71.3036 23.3468 71.4991 23.3191 71.6891 23.2629C71.8786 23.2071 72.1304 23.09 72.4436 22.9104L72.6453 23.1458C71.4819 24.13 70.4762 24.8281 69.6271 25.2419ZM63.7227 15.8329C63.0738 16.0571 62.5932 16.2305 62.28 16.3526C61.967 16.4764 61.6538 16.6608 61.3412 16.9066C60.7816 17.2871 60.3791 17.7566 60.1337 18.3151C59.8874 18.8746 59.7643 19.5788 59.7643 20.4283C59.7643 21.4347 59.9322 22.2062 60.268 22.7431C60.6033 23.2794 61.0838 23.5478 61.71 23.5478C62.336 23.5478 62.8281 23.3247 63.186 22.8774C63.5434 22.4299 63.7227 21.8151 63.7227 21.0321V15.8329Z" fill="#0A0A0A"/>
<path d="M72.5323 25.3928V24.9904C73.1134 24.9459 73.5438 24.8736 73.8237 24.7725C74.1032 24.6726 74.3435 24.4997 74.5449 24.2542C74.7009 24.0317 74.8129 23.7028 74.8802 23.2675C74.9472 22.8329 74.9809 22.091 74.9809 21.0429V7.29375C74.9809 6.2903 74.9356 5.54903 74.8466 5.06951C74.7571 4.59 74.5782 4.17164 74.3102 3.81484C74.0634 3.48056 73.7785 3.24071 73.4547 3.09588C73.1306 2.95126 72.6887 2.86717 72.1296 2.84466L72.0629 2.4767C72.5097 2.38766 72.8953 2.31039 73.22 2.24284C73.5438 2.1761 73.8623 2.10379 74.1759 2.02529C74.4887 1.9474 74.829 1.86352 75.197 1.77448C75.5639 1.68543 76.0033 1.57387 76.5148 1.43979C77.0483 1.30591 77.4937 1.18877 77.8491 1.08836C78.2048 0.988164 78.5327 0.888169 78.8333 0.787763C79.1329 0.686736 79.439 0.586743 79.7502 0.48613C80.0617 0.386136 80.4394 0.269408 80.8842 0.13512V21.0429C80.8842 21.5561 80.8898 21.9907 80.9011 22.3478C80.9123 22.7045 80.9348 23.0001 80.9681 23.2339C81.0018 23.4682 81.0466 23.6631 81.1024 23.8195C81.1581 23.9759 81.2311 24.1212 81.3205 24.2542C81.4988 24.4997 81.7281 24.6726 82.0081 24.7725C82.2876 24.8736 82.7295 24.9459 83.3332 24.9904V25.3928H72.5323Z" fill="#0A0A0A"/>
<path d="M94.1505 25.2576C93.2446 25.6382 92.3248 25.8291 91.3893 25.8291C90.0774 25.8291 88.9764 25.4703 88.0877 24.7535C87.5313 24.3057 87.1423 23.7452 86.92 23.0724C86.6979 22.401 86.5867 21.448 86.5867 20.2153V10.1644H82.461C82.9304 9.96297 83.344 9.77331 83.702 9.59398C84.0594 9.41548 84.3895 9.23657 84.6912 9.05766C84.9932 8.87874 85.2955 8.68867 85.5971 8.48703C85.8992 8.28601 86.2506 8.04016 86.653 7.74906C87.654 7.0113 88.5542 6.26238 89.3549 5.50169C89.6882 5.18911 89.9828 4.904 90.2388 4.64678C90.4945 4.38978 90.7383 4.1214 90.9726 3.84146C91.2063 3.56194 91.4395 3.2603 91.6734 2.93615C91.9066 2.61179 92.1789 2.22628 92.4901 1.77838V8.62132H96.7167L95.8781 10.1644H92.4901V19.8459C92.4901 21.1226 92.7022 22.036 93.1274 22.5855C93.5522 23.1344 94.268 23.4088 95.2744 23.4088C95.587 23.4088 95.8781 23.3867 96.1464 23.3414C96.415 23.2966 96.7613 23.1962 97.186 23.0388L97.3877 23.3078C96.1351 24.2267 95.0562 24.8767 94.1505 25.2576Z" fill="#0A0A0A"/>
<path d="M109.262 25.3928V24.9904C109.887 24.9234 110.307 24.7333 110.519 24.4201C110.732 24.1071 110.838 23.4807 110.838 22.5418V13.6862C110.838 13.0825 110.81 12.6296 110.754 12.328C110.697 12.0259 110.579 11.7524 110.399 11.5061C110.24 11.283 110.027 11.1034 109.756 10.9693C109.486 10.835 109.204 10.7683 108.912 10.7683C108.529 10.7683 108.129 10.8638 107.712 11.0532C107.295 11.2433 106.828 11.562 106.31 12.0093V22.7427C106.31 23.0111 106.321 23.2355 106.343 23.4138C106.365 23.5929 106.388 23.7381 106.41 23.8501C106.432 23.9623 106.466 24.0738 106.511 24.1854C106.623 24.4316 106.779 24.6161 106.98 24.7389C107.182 24.862 107.484 24.9459 107.886 24.9904V25.3928H97.7228V24.9904C98.3713 24.9459 98.8518 24.8736 99.165 24.7725C99.4782 24.6726 99.7355 24.4997 99.9367 24.2542C100.116 24.009 100.239 23.6748 100.306 23.251C100.373 22.8272 100.406 22.091 100.406 21.0429V7.29375C100.406 6.2903 100.361 5.54903 100.272 5.06951C100.182 4.59 100.015 4.17164 99.7687 3.81484C99.5225 3.48056 99.2374 3.24071 98.9136 3.09588C98.5891 2.95126 98.136 2.86717 97.555 2.84466L97.5213 2.4767C97.9914 2.38766 98.4046 2.30419 98.7628 2.22631C99.1202 2.14801 99.4611 2.06991 99.7852 1.99202C100.11 1.91372 100.444 1.82964 100.789 1.7408C101.134 1.65176 101.529 1.55135 101.974 1.43979C102.44 1.30591 102.846 1.19435 103.191 1.10489C103.536 1.01585 103.864 0.921847 104.175 0.82082C104.486 0.720414 104.808 0.620419 105.142 0.519805C105.476 0.419812 105.865 0.291101 106.31 0.13512V11.5086C106.623 11.2412 106.891 11.0181 107.115 10.8396C107.338 10.6617 107.54 10.5053 107.718 10.371C107.897 10.2378 108.065 10.1153 108.222 10.0037C108.378 9.89255 108.557 9.76983 108.758 9.63575C109.541 9.12297 110.273 8.74903 110.956 8.51474C111.637 8.28149 112.336 8.16394 113.052 8.16394C114.282 8.16394 115.21 8.54346 115.836 9.30085C116.149 9.68037 116.373 10.1318 116.507 10.6561C116.641 11.1799 116.708 11.9108 116.708 12.8472V21.7118L116.742 22.5488C116.763 23.0388 116.781 23.3907 116.792 23.6024C116.803 23.814 116.865 24.009 116.976 24.1874C117.111 24.4327 117.306 24.6168 117.563 24.7393C117.82 24.862 118.206 24.9459 118.721 24.9904V25.3928H109.262Z" fill="#0A0A0A"/>
<path d="M133.966 22.1826C133.597 22.9332 133.082 23.5776 132.423 24.1154C131.763 24.6528 130.975 25.073 130.058 25.3756C129.141 25.6773 128.146 25.8291 127.073 25.8291C126.76 25.8291 126.453 25.8183 126.15 25.7979C125.849 25.7773 125.518 25.7355 125.161 25.6741C124.803 25.6118 124.412 25.5331 123.987 25.4369C123.562 25.3405 123.059 25.2031 122.477 25.0238C122.097 24.9122 121.79 24.8227 121.555 24.7554C121.32 24.6885 121.102 24.6215 120.901 24.5541C120.699 24.4875 120.504 24.4201 120.314 24.3532C120.124 24.2858 119.895 24.1968 119.626 24.0848L119.291 17.4098H119.626C120.163 18.6399 120.75 19.7523 121.388 20.747C122.025 21.7424 122.696 22.5868 123.4 23.2794C124.105 23.9732 124.82 24.5039 125.547 24.873C126.273 25.242 126.994 25.4265 127.71 25.4265C128.448 25.4265 129.04 25.2027 129.488 24.7544C129.935 24.3065 130.159 23.7239 130.159 23.0066C130.159 22.2675 129.929 21.6628 129.471 21.1917C129.012 20.7213 128.191 20.2841 127.006 19.8809L125.362 19.3094C123.215 18.5705 121.684 17.7582 120.767 16.873C119.849 15.9883 119.391 14.9297 119.391 13.6966C119.391 12.9129 119.576 12.1846 119.945 11.513C120.314 10.841 120.817 10.2584 121.455 9.76526C122.092 9.27211 122.846 8.88556 123.718 8.60562C124.591 8.32547 125.541 8.1854 126.57 8.1854C127.464 8.1854 128.37 8.25275 129.286 8.38642C130.203 8.5205 131.288 8.76697 132.54 9.1248L132.876 14.6256H132.54C132.182 13.7534 131.757 12.9481 131.265 12.2102C130.773 11.4727 130.248 10.8354 129.689 10.2985C129.13 9.76174 128.56 9.34256 127.978 9.04092C127.396 8.73867 126.838 8.58806 126.301 8.58806C125.652 8.58806 125.099 8.80664 124.641 9.24339C124.182 9.68076 123.953 10.2125 123.953 10.8394C123.953 12.1841 125.015 13.2035 127.14 13.8982L129.421 14.6371C131.21 15.2202 132.507 15.9149 133.312 16.7211C134.117 17.5279 134.519 18.5358 134.519 19.7457C134.519 20.6198 134.335 21.4321 133.966 22.1826Z" fill="#0A0A0A"/>
<path d="M135.022 25.3928V24.9904C135.626 24.9459 136.067 24.8732 136.347 24.7725C136.627 24.6716 136.856 24.4986 137.035 24.2523C137.213 24.0065 137.337 23.6712 137.404 23.2461C137.471 22.8216 137.505 22.0837 137.505 21.0322V15.531C137.505 15.0393 137.493 14.6086 137.471 14.2397C137.448 13.8707 137.409 13.552 137.354 13.2841C137.297 13.0157 137.231 12.7804 137.152 12.5794C137.074 12.3783 136.968 12.1882 136.833 12.0093C136.587 11.6962 136.302 11.4675 135.978 11.3216C135.654 11.1763 135.201 11.0813 134.62 11.0367L134.586 10.701C135.033 10.6119 135.419 10.5278 135.744 10.4495C136.067 10.371 136.386 10.2871 136.699 10.1977C137.012 10.1086 137.354 10.0136 137.722 9.91259C138.091 9.81218 138.532 9.68388 139.047 9.52707C139.561 9.37089 139.998 9.24156 140.356 9.14156C140.713 9.04054 141.048 8.93992 141.362 8.83951C141.674 8.7389 141.988 8.63292 142.301 8.52073C142.614 8.40917 142.983 8.27488 143.408 8.11808V21.0322C143.408 21.547 143.413 21.9827 143.425 22.3401C143.436 22.6986 143.458 22.9946 143.492 23.2293C143.525 23.4642 143.576 23.6602 143.643 23.8165C143.71 23.9733 143.788 24.1181 143.877 24.2523C144.056 24.4986 144.285 24.6716 144.565 24.7725C144.844 24.8732 145.286 24.9459 145.89 24.9904V25.3928H135.022ZM143.357 4.94824C143.168 5.38457 142.91 5.75914 142.586 6.07234C142.262 6.38554 141.882 6.63718 141.446 6.82684C141.01 7.0167 140.545 7.11174 140.053 7.11174C139.561 7.11174 139.103 7.0167 138.678 6.82684C138.253 6.63718 137.878 6.38554 137.555 6.07234C137.231 5.75914 136.973 5.38457 136.783 4.94824C136.593 4.51252 136.498 4.0485 136.498 3.55639C136.498 3.06489 136.593 2.60583 136.783 2.18106C136.973 1.7563 137.224 1.38173 137.538 1.05758C137.851 0.733429 138.226 0.476008 138.662 0.286144C139.098 0.0960738 139.561 0.0010376 140.053 0.0010376C140.545 0.0010376 141.01 0.0960738 141.446 0.286144C141.882 0.476008 142.262 0.727849 142.586 1.04064C142.91 1.35425 143.168 1.7282 143.357 2.16391C143.547 2.60046 143.643 3.06489 143.643 3.55639C143.643 4.0485 143.547 4.51252 143.357 4.94824Z" fill="#0A0A0A"/>
<path d="M167.29 25.3928V24.9904C167.916 24.9234 168.335 24.7333 168.549 24.4201C168.761 24.1071 168.867 23.4807 168.867 22.5418V14.0552C168.867 13.273 168.839 12.6798 168.783 12.2777C168.726 11.8751 168.619 11.5509 168.461 11.3046C168.326 11.0813 168.117 10.9024 167.836 10.7683C167.554 10.634 167.267 10.5667 166.974 10.5667C166.591 10.5667 166.208 10.6621 165.825 10.8522C165.442 11.0421 165.002 11.3608 164.506 11.8077V22.5418C164.506 23.0111 164.528 23.3968 164.573 23.6989C164.618 24.001 164.696 24.2418 164.808 24.4201C164.92 24.5993 165.077 24.7333 165.278 24.8227C165.479 24.9122 165.748 24.968 166.083 24.9904V25.3928H157.06V24.9904C157.373 24.968 157.63 24.9122 157.831 24.8227C158.033 24.7333 158.188 24.5993 158.301 24.4201C158.413 24.2418 158.491 24.001 158.536 23.6989C158.58 23.3968 158.603 23.0111 158.603 22.5418V14.0552C158.603 13.2951 158.575 12.7301 158.519 12.3616C158.463 11.9922 158.345 11.663 158.167 11.3719C158.033 11.1261 157.826 10.9357 157.546 10.802C157.266 10.6677 156.959 10.6004 156.624 10.6004C156.243 10.6004 155.869 10.6898 155.5 10.8687C155.131 11.0483 154.712 11.3608 154.242 11.8077V22.5418C154.242 23.0111 154.264 23.3968 154.309 23.6989C154.354 24.001 154.432 24.2418 154.544 24.4201C154.656 24.5993 154.818 24.7333 155.03 24.8227C155.243 24.9122 155.505 24.968 155.818 24.9904V25.3928H145.622V24.9904C146.27 24.9465 146.751 24.874 147.064 24.7736C147.377 24.673 147.634 24.5007 147.836 24.2552C148.037 24.01 148.165 23.6761 148.221 23.2531C148.277 22.8297 148.305 22.0952 148.305 21.0482V15.5687C148.305 15.0786 148.293 14.6503 148.271 14.2829C148.249 13.9154 148.216 13.5978 148.171 13.3303C148.126 13.0634 148.064 12.8292 147.986 12.6286C147.908 12.4285 147.802 12.2385 147.668 12.0605C147.421 11.7494 147.136 11.5207 146.812 11.3759C146.488 11.2311 146.035 11.1367 145.454 11.0918L145.42 10.7578C145.667 10.7134 145.884 10.6691 146.074 10.6245C146.264 10.5797 146.415 10.5355 146.527 10.4902C147.064 10.3576 147.578 10.2293 148.07 10.1068C148.562 9.98407 149.054 9.8504 149.546 9.70557C150.038 9.56137 150.553 9.40497 151.089 9.23763C151.626 9.07111 152.218 8.87608 152.867 8.65296L154.242 8.18543V11.3719C154.444 11.1704 154.622 10.9919 154.779 10.835C154.935 10.6787 155.092 10.539 155.248 10.4159C155.405 10.2931 155.567 10.17 155.735 10.0469C155.902 9.92436 156.109 9.7845 156.355 9.62769C157.138 9.11346 157.858 8.74448 158.516 8.52073C159.174 8.29761 159.859 8.18543 160.571 8.18543C162.794 8.18543 164.106 9.24775 164.506 11.3719C164.752 11.1487 164.965 10.9526 165.144 10.7848C165.323 10.6175 165.49 10.4661 165.647 10.332C165.803 10.1977 165.954 10.075 166.1 9.963C166.245 9.85143 166.407 9.73987 166.586 9.62769C167.302 9.13598 168.017 8.77216 168.733 8.53747C169.448 8.30257 170.164 8.18543 170.879 8.18543C173.451 8.18543 174.737 9.76694 174.737 12.9297V21.7163L174.771 22.5519C174.793 23.0419 174.809 23.3923 174.821 23.6039C174.832 23.8161 174.893 24.01 175.005 24.1885C175.14 24.4338 175.335 24.6172 175.593 24.7399C175.849 24.8627 176.235 24.9465 176.75 24.9904V25.3928H167.29Z" fill="#0A0A0A"/>
<path d="M195.917 19.9756C195.502 21.1499 194.936 22.1727 194.219 23.045C193.5 23.917 192.659 24.5993 191.695 25.0907C190.731 25.5825 189.688 25.8293 188.566 25.8293C187.916 25.8293 187.35 25.7392 186.868 25.5607C186.385 25.3818 185.852 25.0693 185.27 24.6213V27.6855C185.27 28.1942 185.275 28.619 185.286 28.9628C185.297 29.3047 185.325 29.5976 185.37 29.841C185.414 30.0844 185.471 30.283 185.538 30.4377C185.605 30.5925 185.694 30.7362 185.806 30.8685C186.008 31.1118 186.276 31.2827 186.611 31.3827C186.947 31.4816 187.472 31.5535 188.188 31.5983V32.0004H176.246V31.5983C177.006 31.531 177.555 31.437 177.89 31.3143C178.225 31.1917 178.516 30.974 178.762 30.6619C178.985 30.4166 179.131 30.0823 179.198 29.6586C179.243 29.4801 179.276 29.3012 179.299 29.1238C179.32 28.9448 179.338 28.7331 179.349 28.4878C179.36 28.2426 179.366 27.9298 179.366 27.5509V15.5773C179.366 15.0867 179.354 14.6574 179.332 14.2894C179.309 13.9215 179.276 13.6038 179.232 13.3363C179.186 13.069 179.125 12.8347 179.047 12.6341C178.969 12.4331 178.863 12.2435 178.728 12.0651C178.482 11.753 178.197 11.5243 177.873 11.3799C177.549 11.2352 177.096 11.1402 176.515 11.0949L176.481 10.7606C176.906 10.6716 177.28 10.5883 177.605 10.5105C177.929 10.4319 178.247 10.3481 178.561 10.259C178.874 10.17 179.214 10.0752 179.582 9.97454C179.949 9.87454 180.4 9.74687 180.934 9.59047C181.467 9.43408 181.911 9.3064 182.267 9.20599C182.623 9.10497 182.951 9.00497 183.251 8.90436C183.552 8.80436 183.858 8.69817 184.169 8.58661C184.48 8.47546 184.847 8.34138 185.27 8.1856V10.3656C186.189 9.58303 187.047 9.02398 187.843 8.68826C188.639 8.35295 189.463 8.1856 190.316 8.1856C191.235 8.1856 192.076 8.38146 192.839 8.77214C193.601 9.16364 194.257 9.71154 194.807 10.4158C195.357 11.1201 195.782 11.9591 196.085 12.9317C196.388 13.9044 196.54 14.9836 196.54 16.1684C196.54 17.5326 196.332 18.8019 195.917 19.9756ZM189.456 11.9922C188.916 10.7069 188.174 10.0636 187.228 10.0636C186.958 10.0636 186.688 10.1198 186.418 10.2313C186.147 10.3435 185.765 10.5555 185.27 10.8687V24.0844C185.765 24.5771 186.316 24.823 186.924 24.823C187.982 24.823 188.804 24.1633 189.389 22.844C189.974 21.5244 190.267 19.6796 190.267 17.309C190.267 15.0504 189.997 13.2786 189.456 11.9922Z" fill="#0A0A0A"/>
<path d="M196.137 25.3928V24.9904C196.718 24.9459 197.149 24.8736 197.429 24.7725C197.708 24.6726 197.948 24.4997 198.15 24.2542C198.306 24.0317 198.418 23.7028 198.485 23.2675C198.552 22.8329 198.586 22.091 198.586 21.0429V7.29375C198.586 6.2903 198.54 5.54903 198.451 5.06951C198.362 4.59 198.183 4.17164 197.915 3.81484C197.668 3.48056 197.383 3.24071 197.06 3.09588C196.735 2.95126 196.293 2.86717 195.734 2.84466L195.668 2.4767C196.115 2.38766 196.5 2.31039 196.825 2.24284C197.149 2.1761 197.467 2.10379 197.781 2.02529C198.094 1.9474 198.434 1.86352 198.802 1.77448C199.169 1.68543 199.608 1.57387 200.12 1.43979C200.653 1.30591 201.099 1.18877 201.454 1.08836C201.81 0.988164 202.137 0.888169 202.438 0.787763C202.738 0.686736 203.044 0.586743 203.355 0.48613C203.667 0.386136 204.044 0.269408 204.489 0.13512V21.0429C204.489 21.5561 204.495 21.9907 204.506 22.3478C204.517 22.7045 204.54 23.0001 204.573 23.2339C204.607 23.4682 204.651 23.6631 204.707 23.8195C204.763 23.9759 204.836 24.1212 204.925 24.2542C205.104 24.4997 205.333 24.6726 205.613 24.7725C205.892 24.8736 206.334 24.9459 206.937 24.9904V25.3928H196.137Z" fill="#0A0A0A"/>
<path d="M223.415 20.2105C223.258 20.5795 223.103 20.9098 222.946 21.2002C222.789 21.4908 222.616 21.7703 222.426 22.0387C222.236 22.307 222.019 22.5977 221.773 22.9109C220.99 23.8499 220.05 24.5711 218.955 25.0744C217.86 25.5774 216.651 25.8289 215.333 25.8289C214.079 25.8289 212.912 25.6107 211.827 25.1748C210.743 24.7385 209.803 24.1348 209.009 23.3631C208.216 22.5921 207.594 21.6812 207.148 20.6298C206.699 19.5792 206.477 18.4386 206.477 17.2081C206.477 15.9564 206.712 14.7821 207.181 13.6864C207.652 12.5911 208.298 11.635 209.127 10.8185C209.953 10.0022 210.92 9.3593 212.028 8.88991C213.135 8.4199 214.325 8.18562 215.6 8.18562C216.719 8.18562 217.746 8.35296 218.686 8.68827C219.626 9.02399 220.453 9.50516 221.17 10.1305C221.884 10.7574 222.471 11.5173 222.93 12.4116C223.388 13.3063 223.684 14.3016 223.818 15.3969H212.716C212.738 19.5792 214.606 21.6697 218.318 21.6697C219.727 21.6697 220.922 21.3234 221.907 20.6298C222.287 20.3839 222.589 20.1326 222.812 19.8747C223.035 19.6184 223.316 19.2323 223.651 18.7181L223.952 18.8518C223.752 19.3886 223.572 19.8415 223.415 20.2105ZM217.881 14.0111C217.881 13.7401 217.876 13.4978 217.864 13.2827C217.854 13.068 217.841 12.87 217.831 12.6895C217.821 12.5091 217.802 12.306 217.781 12.0793C217.69 10.8594 217.467 9.97207 217.11 9.41818C216.752 8.86533 216.238 8.58766 215.567 8.58766C214.629 8.58766 213.918 9.13618 213.437 10.232C212.955 11.3284 212.716 12.9163 212.716 14.9943H217.881V14.0111Z" fill="#0A0A0A"/>
</g>
<defs>
<clipPath id="clip0_1872_848">
<rect width="223.952" height="32" fill="white"/>
</clipPath>
</defs>
</svg>
