<svg xmlns="http://www.w3.org/2000/svg" width="118.974" height="40" fill="none" overflow="visible"><g><g transform="translate(0 23.24)"><path d="M 46.857 10.722 C 46.919 10.74 46.975 10.757 47.027 10.775 C 47.062 11.071 47.084 11.376 47.092 11.69 C 47.101 12.004 47.132 12.309 47.184 12.605 C 47.219 12.814 47.271 13.023 47.34 13.232 C 47.41 13.442 47.507 13.642 47.629 13.833 C 47.682 13.921 47.79 13.976 47.955 14.003 C 48.122 14.029 48.265 14.025 48.387 13.99 C 48.473 13.973 48.565 13.903 48.662 13.78 C 48.757 13.659 48.797 13.554 48.78 13.466 C 48.692 12.855 48.613 12.246 48.545 11.636 C 48.475 11.025 48.352 10.421 48.178 9.832 C 48.021 9.309 47.75 9.005 47.367 8.917 C 46.982 8.83 46.564 8.952 46.111 9.283 C 45.936 9.404 45.766 9.536 45.601 9.675 C 45.427 9.821 45.249 9.96 45.065 10.093 C 45.012 9.797 44.965 9.531 44.921 9.296 C 44.878 9.061 44.83 8.83 44.778 8.604 C 44.708 8.359 44.598 8.164 44.451 8.015 C 44.303 7.867 44.088 7.828 43.81 7.897 C 43.513 7.967 43.344 8.101 43.3 8.303 C 43.257 8.504 43.252 8.725 43.287 8.97 C 43.339 9.424 43.397 9.872 43.457 10.316 C 43.517 10.76 43.575 11.209 43.627 11.662 C 43.644 11.854 43.648 12.041 43.64 12.224 C 43.632 12.407 43.653 12.587 43.705 12.76 C 43.775 12.917 43.862 13.078 43.967 13.244 C 44.072 13.41 44.193 13.51 44.333 13.545 C 44.455 13.562 44.595 13.51 44.751 13.389 C 44.908 13.267 45.048 13.144 45.17 13.023 C 45.256 12.918 45.323 12.796 45.366 12.657 C 45.409 12.517 45.475 12.387 45.563 12.265 C 45.754 11.987 45.942 11.716 46.125 11.455 C 46.309 11.194 46.496 10.932 46.688 10.671 C 46.74 10.687 46.797 10.705 46.857 10.722 M 38.954 14.146 C 38.805 14.251 38.609 14.408 38.365 14.617 C 38.226 14.251 38.086 13.933 37.947 13.662 C 37.807 13.392 37.712 13.118 37.659 12.839 C 37.379 11.584 37.249 10.333 37.266 9.086 C 37.283 7.84 37.336 6.589 37.423 5.334 C 37.44 5.038 37.51 4.747 37.633 4.459 C 37.754 4.171 37.876 3.888 37.999 3.609 C 38.139 3.313 38.33 3.13 38.575 3.06 C 38.819 2.99 39.063 3.06 39.308 3.269 C 39.551 3.479 39.783 3.71 40.001 3.963 C 40.219 4.216 40.398 4.482 40.537 4.76 C 40.852 5.371 41.052 6.089 41.14 6.917 C 41.227 7.745 41.214 8.582 41.1 9.426 C 40.987 10.271 40.777 11.083 40.472 11.858 C 40.167 12.634 39.788 13.283 39.333 13.807 C 39.228 13.929 39.102 14.043 38.954 14.146 M 41.099 3.165 C 40.801 2.789 40.473 2.44 40.118 2.118 C 39.717 1.735 39.28 1.534 38.809 1.516 C 38.338 1.499 37.91 1.664 37.526 2.013 C 37.02 2.449 36.614 2.929 36.309 3.451 C 36.004 3.974 35.868 4.602 35.903 5.334 C 35.973 6.363 36.016 7.378 36.034 8.381 C 36.051 9.384 36.069 10.381 36.086 11.374 C 36.086 11.409 36.099 11.518 36.126 11.702 C 36.152 11.885 36.191 12.098 36.244 12.342 C 36.297 12.587 36.352 12.848 36.414 13.126 C 36.474 13.406 36.549 13.649 36.636 13.858 C 36.706 13.998 36.767 14.12 36.819 14.224 C 36.871 14.329 36.932 14.434 37.002 14.539 C 37.369 15.166 37.795 15.519 38.285 15.597 C 38.773 15.675 39.296 15.479 39.855 15.01 C 39.942 14.923 40.034 14.836 40.13 14.748 C 40.225 14.662 40.308 14.565 40.378 14.461 C 41.426 12.875 42.101 11.249 42.407 9.584 C 42.712 7.92 42.515 6.181 41.819 4.367 C 41.645 3.95 41.405 3.549 41.099 3.165 M 28.995 8.186 C 29.396 8.325 29.789 8.613 30.173 9.048 C 29.771 9.449 29.335 9.75 28.864 9.95 C 28.392 10.151 27.825 10.286 27.162 10.356 C 26.952 9.309 27.188 8.613 27.868 8.264 C 28.219 8.073 28.594 8.046 28.995 8.186 M 30.617 12.304 C 30.443 12.295 30.286 12.344 30.146 12.447 C 29.989 12.569 29.815 12.665 29.623 12.735 C 29.466 12.805 29.278 12.861 29.06 12.905 C 28.842 12.948 28.61 12.943 28.366 12.892 C 28.104 12.84 27.891 12.727 27.725 12.552 C 27.558 12.379 27.423 12.186 27.318 11.976 L 27.685 11.845 C 27.894 11.758 28.108 11.68 28.326 11.61 C 28.544 11.54 28.749 11.454 28.941 11.349 C 29.289 11.176 29.639 11.001 29.988 10.826 C 30.337 10.652 30.668 10.444 30.983 10.199 C 31.331 9.973 31.536 9.702 31.597 9.389 C 31.658 9.074 31.619 8.77 31.479 8.474 C 31.374 8.23 31.204 7.999 30.969 7.781 C 30.734 7.563 30.463 7.372 30.158 7.206 C 29.856 7.042 29.535 6.915 29.202 6.826 C 28.871 6.74 28.556 6.705 28.26 6.722 C 27.7 6.756 27.212 6.956 26.794 7.324 C 26.375 7.69 26.078 8.177 25.904 8.788 C 25.818 9.137 25.756 9.528 25.721 9.964 L 25.721 9.938 C 25.704 9.973 25.695 10.016 25.695 10.069 C 25.695 10.104 25.7 10.295 25.708 10.645 C 25.716 10.994 25.783 11.39 25.904 11.834 C 26.026 12.279 26.236 12.719 26.532 13.155 C 26.829 13.591 27.257 13.896 27.815 14.07 C 27.85 14.088 27.937 14.114 28.077 14.149 C 28.478 14.237 28.848 14.249 29.189 14.188 C 29.529 14.127 29.83 14.045 30.092 13.939 C 30.353 13.834 30.558 13.73 30.707 13.626 C 30.855 13.521 30.938 13.46 30.955 13.443 C 31.095 13.321 31.173 13.178 31.19 13.012 C 31.207 12.846 31.163 12.694 31.059 12.554 C 30.94 12.395 30.792 12.312 30.617 12.304 M 22.857 10.722 C 22.918 10.74 22.975 10.757 23.027 10.775 C 23.062 11.071 23.084 11.376 23.092 11.69 C 23.101 12.004 23.131 12.309 23.184 12.605 C 23.219 12.814 23.271 13.023 23.341 13.232 C 23.411 13.442 23.506 13.642 23.629 13.833 C 23.682 13.921 23.79 13.976 23.957 14.003 C 24.122 14.029 24.266 14.025 24.388 13.99 C 24.475 13.973 24.567 13.903 24.663 13.78 C 24.759 13.659 24.798 13.554 24.781 13.466 C 24.693 12.855 24.615 12.246 24.546 11.636 C 24.476 11.025 24.354 10.421 24.18 9.832 C 24.023 9.309 23.752 9.005 23.368 8.917 C 22.984 8.83 22.566 8.952 22.112 9.283 C 21.938 9.404 21.768 9.536 21.603 9.675 C 21.429 9.821 21.25 9.96 21.066 10.093 C 21.014 9.797 20.966 9.531 20.923 9.296 C 20.879 9.061 20.831 8.83 20.779 8.604 C 20.709 8.359 20.6 8.164 20.453 8.015 C 20.304 7.867 20.09 7.828 19.811 7.897 C 19.515 7.967 19.345 8.101 19.3 8.303 C 19.257 8.504 19.252 8.725 19.287 8.97 C 19.34 9.424 19.397 9.872 19.457 10.316 C 19.518 10.76 19.575 11.209 19.627 11.662 C 19.644 11.854 19.649 12.041 19.64 12.224 C 19.632 12.407 19.653 12.587 19.705 12.76 C 19.775 12.917 19.862 13.078 19.967 13.244 C 20.072 13.41 20.193 13.51 20.333 13.545 C 20.455 13.562 20.595 13.51 20.752 13.389 C 20.908 13.267 21.048 13.144 21.171 13.023 C 21.258 12.918 21.323 12.796 21.368 12.657 C 21.411 12.517 21.476 12.387 21.564 12.265 C 21.756 11.987 21.944 11.716 22.127 11.455 C 22.31 11.194 22.497 10.932 22.69 10.671 C 22.739 10.687 22.796 10.705 22.857 10.722 M 17.649 14.853 C 17.797 14.713 17.889 14.548 17.924 14.356 C 17.976 13.712 17.972 13.01 17.911 12.251 C 17.849 11.492 17.771 10.787 17.676 10.133 C 17.579 9.479 17.484 8.926 17.387 8.472 C 17.291 8.02 17.234 7.775 17.217 7.74 C 17.164 7.531 17.048 7.371 16.864 7.256 C 16.681 7.143 16.493 7.103 16.301 7.138 C 16.092 7.191 15.931 7.308 15.817 7.491 C 15.704 7.674 15.665 7.87 15.699 8.079 C 15.89 8.915 16.035 9.644 16.13 10.262 C 16.227 10.881 16.305 11.543 16.365 12.249 C 16.426 12.954 16.43 13.604 16.379 14.197 C 16.344 14.423 16.395 14.615 16.535 14.772 C 16.675 14.929 16.85 15.025 17.058 15.06 L 17.137 15.06 C 17.331 15.063 17.501 14.993 17.649 14.853 M 17.191 3.035 C 17.071 2.931 16.927 2.859 16.773 2.825 C 16.633 2.808 16.485 2.842 16.328 2.93 C 16.171 3.018 16.023 3.134 15.883 3.283 C 15.749 3.423 15.635 3.582 15.543 3.753 C 15.456 3.92 15.421 4.063 15.438 4.184 C 15.455 4.394 15.56 4.572 15.752 4.72 C 15.945 4.868 16.162 4.933 16.406 4.917 C 16.528 4.917 16.655 4.864 16.786 4.76 C 16.917 4.655 17.039 4.525 17.152 4.367 C 17.266 4.211 17.357 4.041 17.427 3.857 C 17.497 3.674 17.524 3.487 17.506 3.295 C 17.418 3.226 17.313 3.139 17.191 3.035 M 16.393 7.753 C 16.227 7.815 16.1 7.923 16.013 8.08 C 15.943 8.219 15.839 8.403 15.699 8.629 C 15.559 8.855 15.415 9.086 15.267 9.322 C 15.119 9.557 14.984 9.772 14.861 9.963 C 14.783 10.086 14.705 10.208 14.626 10.329 C 14.434 10.574 14.238 10.83 14.038 11.101 C 13.836 11.372 13.536 11.575 13.135 11.715 L 13.108 11.715 C 13.039 11.454 12.973 11.209 12.912 10.983 C 12.85 10.757 12.802 10.522 12.769 10.277 C 12.715 10.033 12.677 9.79 12.65 9.545 C 12.623 9.298 12.575 9.053 12.507 8.813 C 12.332 8.169 12.049 7.79 11.656 7.675 C 11.263 7.562 10.823 7.732 10.334 8.186 C 10.142 8.36 9.959 8.544 9.784 8.735 C 9.609 8.928 9.426 9.119 9.234 9.31 C 9.199 9.276 9.16 9.254 9.116 9.245 C 9.073 9.237 9.025 9.215 8.973 9.18 L 8.973 1.886 C 8.973 1.729 8.995 1.568 9.038 1.402 C 9.081 1.236 9.103 1.075 9.103 0.918 C 9.103 0.639 9.028 0.412 8.88 0.237 C 8.732 0.064 8.544 -0.016 8.317 0.003 C 8.056 0.003 7.864 0.072 7.741 0.212 C 7.619 0.352 7.541 0.543 7.506 0.788 C 7.489 0.909 7.484 1.032 7.493 1.154 C 7.501 1.275 7.506 1.398 7.506 1.52 L 7.741 12.031 C 7.741 12.17 7.737 12.301 7.728 12.423 C 7.719 12.545 7.741 12.658 7.793 12.763 C 7.828 12.867 7.898 12.967 8.003 13.064 C 8.107 13.16 8.203 13.217 8.291 13.233 C 8.377 13.25 8.482 13.225 8.605 13.155 C 8.727 13.085 8.823 13.007 8.893 12.92 C 8.98 12.799 9.037 12.668 9.063 12.528 C 9.09 12.388 9.128 12.25 9.181 12.11 C 9.426 11.569 9.705 11.055 10.019 10.568 C 10.334 10.08 10.76 9.609 11.302 9.156 C 11.372 9.557 11.42 9.905 11.445 10.203 C 11.472 10.499 11.527 10.787 11.615 11.066 C 11.755 11.589 11.912 11.985 12.086 12.256 C 12.261 12.527 12.426 12.727 12.584 12.858 C 12.741 12.989 12.889 13.063 13.029 13.081 C 13.169 13.097 13.264 13.107 13.317 13.107 C 13.387 13.107 13.491 13.09 13.632 13.054 C 13.998 12.967 14.364 12.731 14.731 12.348 C 15.097 11.966 15.442 11.538 15.765 11.067 C 16.088 10.596 16.371 10.139 16.616 9.695 C 16.859 9.25 17.044 8.906 17.166 8.661 C 17.252 8.505 17.266 8.344 17.204 8.177 C 17.143 8.012 17.034 7.886 16.878 7.798 C 16.72 7.707 16.558 7.693 16.393 7.753 M 3.097 14.97 C 2.564 15.048 1.967 15.018 1.304 14.878 C 1.426 14.426 1.579 14.015 1.762 13.65 C 1.946 13.284 2.151 12.945 2.377 12.63 C 2.604 12.316 2.852 12.016 3.123 11.728 C 3.393 11.441 3.668 11.149 3.948 10.853 C 4.035 11.044 4.121 11.211 4.209 11.35 C 4.296 11.49 4.358 11.63 4.393 11.768 C 4.444 11.978 4.511 12.187 4.589 12.395 C 4.667 12.604 4.729 12.818 4.772 13.036 C 4.816 13.254 4.825 13.463 4.799 13.663 C 4.772 13.864 4.672 14.051 4.497 14.226 C 4.095 14.644 3.628 14.892 3.097 14.97 M 5.95 7.82 C 5.4 8.029 4.924 8.256 4.524 8.499 L 4.446 8.316 C 4.044 7.845 3.664 7.387 3.306 6.943 C 2.949 6.499 2.577 6.076 2.194 5.675 C 1.758 5.222 1.579 4.83 1.658 4.499 C 1.736 4.168 2.054 3.863 2.613 3.584 C 2.875 3.444 3.167 3.387 3.49 3.414 C 3.813 3.44 4.123 3.452 4.419 3.452 C 4.576 3.47 4.734 3.509 4.89 3.57 C 5.047 3.632 5.205 3.67 5.362 3.688 C 5.571 3.723 5.758 3.693 5.925 3.597 C 6.09 3.502 6.173 3.332 6.173 3.087 C 6.173 2.948 6.125 2.796 6.029 2.63 C 5.933 2.464 5.824 2.347 5.703 2.277 C 5.353 2.051 4.965 1.903 4.538 1.833 C 4.11 1.763 3.687 1.759 3.269 1.82 C 2.851 1.881 2.445 2.016 2.052 2.225 C 1.659 2.435 1.314 2.696 1.018 3.009 C 0.058 4.038 -0.003 5.11 0.834 6.225 C 1.026 6.47 1.236 6.714 1.462 6.958 C 1.689 7.202 1.899 7.446 2.09 7.69 C 2.282 7.969 2.474 8.244 2.666 8.513 C 2.858 8.784 3.05 9.049 3.243 9.31 C 2.858 9.763 2.496 10.191 2.157 10.592 C 1.817 10.993 1.497 11.402 1.201 11.82 C 0.971 12.138 0.762 12.47 0.573 12.813 C 0.381 13.162 0.233 13.529 0.128 13.911 C -0.082 14.592 -0.034 15.176 0.271 15.663 C 0.576 16.151 1.061 16.396 1.724 16.396 C 2.23 16.396 2.735 16.344 3.241 16.239 C 3.748 16.134 4.244 15.995 4.734 15.821 C 5.292 15.595 5.685 15.234 5.911 14.736 C 6.138 14.239 6.199 13.66 6.094 12.997 C 6.024 12.613 5.933 12.233 5.82 11.86 C 5.706 11.485 5.598 11.097 5.493 10.696 C 5.458 10.54 5.41 10.382 5.35 10.226 C 5.288 10.069 5.241 9.903 5.206 9.728 L 5.18 9.702 C 5.476 9.51 5.851 9.332 6.305 9.166 C 6.759 9 7.248 8.918 7.771 8.918 C 7.963 8.918 8.119 8.848 8.242 8.708 C 8.364 8.569 8.426 8.404 8.426 8.211 C 8.426 8.02 8.364 7.853 8.242 7.714 C 8.121 7.574 7.963 7.504 7.771 7.504 C 7.106 7.505 6.499 7.61 5.95 7.82" fill="rgb(10, 10, 10)"></path></g><g transform="translate(46.828 0)"><g><g><g><g><path d="M 25.914 36.041 C 26.593 36.041 27.139 36.542 27.139 37.163 C 27.139 37.782 26.593 38.284 25.914 38.284 C 25.232 38.284 24.686 37.782 24.686 37.163 C 24.686 36.542 25.232 36.041 25.914 36.041 M 25.914 38.084 C 26.473 38.084 26.906 37.689 26.906 37.163 C 26.906 36.637 26.473 36.246 25.914 36.246 C 25.351 36.246 24.917 36.637 24.917 37.163 C 24.917 37.688 25.351 38.084 25.914 38.084 M 25.444 36.506 L 25.996 36.506 C 26.323 36.506 26.485 36.624 26.485 36.873 C 26.485 37.085 26.339 37.235 26.115 37.235 L 26.527 37.818 L 26.278 37.818 L 25.881 37.235 L 25.678 37.235 L 25.678 37.818 L 25.444 37.818 Z M 25.678 37.068 L 25.955 37.068 C 26.136 37.068 26.254 37.035 26.254 36.863 C 26.254 36.713 26.136 36.672 25.955 36.672 L 25.678 36.672 Z" fill="rgb(10, 10, 10)"></path><path d="M 22.769 20.699 L 11.365 1.06 C 10.97 0.331 10.272 0.029 9.666 0.029 L 0.526 0.029 C 0.236 0.029 0 0.266 0 0.555 C 0 0.656 0.037 0.747 0.087 0.826 L 11.786 20.794 C 12.11 21.313 12.282 21.913 12.281 22.526 L 12.287 37.358 C 12.287 37.83 12.672 38.206 13.144 38.206 L 22.471 38.206 C 22.944 38.205 23.326 37.815 23.326 37.344 L 23.332 22.446 C 23.33 21.795 23.091 21.21 22.769 20.699 Z" fill="rgb(10, 10, 10)"></path><path d="M 28.557 4.597 L 24.951 10.837 L 24.95 10.837 C 24.912 10.9 24.845 10.943 24.765 10.943 C 24.686 10.943 24.617 10.9 24.58 10.835 L 24.578 10.835 L 20.971 4.594 L 20.971 4.593 C 20.953 4.561 20.943 4.525 20.943 4.489 C 20.943 4.371 21.039 4.275 21.158 4.275 L 28.37 4.275 C 28.489 4.275 28.585 4.371 28.585 4.489 C 28.587 4.529 28.575 4.565 28.557 4.597 Z M 35.643 0.696 C 35.643 0.312 35.331 0 34.948 0 L 14.584 0 C 14.199 0 13.888 0.312 13.888 0.696 C 13.888 0.82 13.923 0.934 13.98 1.034 L 24.159 18.641 C 24.277 18.858 24.504 19.006 24.768 19.006 C 25.024 19.006 25.246 18.865 25.367 18.658 L 35.545 1.05 C 35.605 0.946 35.643 0.826 35.643 0.696 Z" fill="rgb(10, 10, 10)"></path></g></g></g></g></g><g transform="translate(81.783 21.614)"><path d="M 3.481 0 C 5.13 0 5.973 0.901 5.973 0.901 L 5.498 1.617 C 5.498 1.617 4.702 0.872 3.52 0.872 C 1.988 0.872 0.988 2.034 0.988 3.487 C 0.988 4.95 2.007 6.189 3.529 6.189 C 4.819 6.189 5.643 5.298 5.643 5.298 L 6.157 5.986 C 6.157 5.986 5.217 7.071 3.5 7.071 C 1.445 7.071 0 5.502 0 3.497 C 0 1.511 1.492 0 3.481 0 Z" fill="rgb(10, 10, 10)"></path><path d="M 9.832 3.894 L 10.045 3.894 L 10.045 3.807 C 10.045 3.003 9.59 2.732 8.969 2.732 C 8.213 2.732 7.602 3.207 7.602 3.207 L 7.214 2.519 C 7.214 2.519 7.922 1.937 9.046 1.937 C 10.288 1.937 10.986 2.615 10.986 3.856 L 10.986 6.955 L 10.113 6.955 L 10.113 6.49 C 10.113 6.267 10.132 6.103 10.132 6.103 L 10.113 6.103 C 10.113 6.103 9.715 7.071 8.542 7.071 C 7.699 7.071 6.874 6.558 6.874 5.579 C 6.874 3.962 9.008 3.894 9.832 3.894 Z M 8.746 6.316 C 9.542 6.316 10.055 5.482 10.055 4.756 L 10.055 4.601 L 9.813 4.601 C 9.105 4.601 7.825 4.649 7.825 5.531 C 7.824 5.928 8.135 6.316 8.746 6.316 Z" fill="rgb(10, 10, 10)"></path><path d="M 12.391 2.054 L 13.254 2.054 L 13.254 2.471 C 13.254 2.665 13.235 2.83 13.235 2.83 L 13.254 2.83 C 13.254 2.83 13.671 1.939 14.903 1.939 C 16.222 1.939 17.056 2.985 17.056 4.506 C 17.056 6.065 16.116 7.073 14.835 7.073 C 13.759 7.073 13.332 6.269 13.332 6.269 L 13.313 6.269 C 13.313 6.269 13.332 6.443 13.332 6.695 L 13.332 8.894 L 12.392 8.894 L 12.392 2.054 Z M 14.69 6.267 C 15.466 6.267 16.105 5.628 16.105 4.514 C 16.105 3.449 15.532 2.761 14.719 2.761 C 13.982 2.761 13.302 3.274 13.302 4.524 C 13.303 5.396 13.788 6.267 14.69 6.267 Z" fill="rgb(10, 10, 10)"></path><path d="M 18.2 0.117 L 19.149 0.117 L 19.149 1.075 L 18.2 1.075 Z M 18.209 2.054 L 19.149 2.054 L 19.149 6.956 L 18.209 6.956 Z" fill="rgb(10, 10, 10)"></path><path d="M 20.827 2.877 L 20.187 2.877 L 20.187 2.122 L 20.856 2.122 L 20.856 0.707 L 21.767 0.707 L 21.767 2.122 L 22.95 2.122 L 22.95 2.877 L 21.767 2.877 L 21.767 5.056 C 21.767 6.034 22.456 6.16 22.815 6.16 C 22.951 6.16 23.038 6.141 23.038 6.141 L 23.038 6.974 C 23.038 6.974 22.902 6.994 22.708 6.994 C 22.077 6.994 20.826 6.8 20.826 5.163 L 20.826 2.877 Z" fill="rgb(10, 10, 10)"></path><path d="M 26.655 3.894 L 26.869 3.894 L 26.869 3.807 C 26.869 3.003 26.413 2.732 25.792 2.732 C 25.036 2.732 24.425 3.207 24.425 3.207 L 24.037 2.519 C 24.037 2.519 24.745 1.937 25.869 1.937 C 27.111 1.937 27.809 2.615 27.809 3.856 L 27.809 6.955 L 26.936 6.955 L 26.936 6.49 C 26.936 6.267 26.955 6.103 26.955 6.103 L 26.936 6.103 C 26.936 6.103 26.538 7.071 25.365 7.071 C 24.522 7.071 23.697 6.558 23.697 5.579 C 23.697 3.962 25.831 3.894 26.655 3.894 Z M 25.569 6.316 C 26.365 6.316 26.878 5.482 26.878 4.756 L 26.878 4.601 L 26.636 4.601 C 25.928 4.601 24.648 4.649 24.648 5.531 C 24.647 5.928 24.958 6.316 25.569 6.316 Z" fill="rgb(10, 10, 10)"></path><path d="M 29.156 0.117 L 30.096 0.117 L 30.096 5.455 C 30.096 6.046 30.329 6.152 30.62 6.152 C 30.706 6.152 30.785 6.142 30.785 6.142 L 30.785 6.976 C 30.785 6.976 30.639 6.995 30.475 6.995 C 29.942 6.995 29.156 6.849 29.156 5.62 Z" fill="rgb(10, 10, 10)"></path></g><g transform="translate(82.265 12.463)"><path d="M 0 0 L 0.95 0 L 3.995 4.446 C 4.246 4.814 4.567 5.434 4.567 5.434 L 4.586 5.434 C 4.586 5.434 4.519 4.824 4.519 4.446 L 4.519 0 L 5.478 0 L 5.478 6.838 L 4.538 6.838 L 1.484 2.402 C 1.232 2.024 0.911 1.404 0.911 1.404 L 0.892 1.404 C 0.892 1.404 0.959 2.015 0.959 2.402 L 0.959 6.838 L 0 6.838 Z" fill="rgb(10, 10, 10)"></path><path d="M 9.706 3.777 L 9.919 3.777 L 9.919 3.691 C 9.919 2.886 9.463 2.615 8.842 2.615 C 8.087 2.615 7.476 3.09 7.476 3.09 L 7.087 2.402 C 7.087 2.402 7.795 1.821 8.92 1.821 C 10.161 1.821 10.859 2.499 10.859 3.739 L 10.859 6.838 L 9.986 6.838 L 9.986 6.373 C 9.986 6.151 10.006 5.986 10.006 5.986 L 9.986 5.986 C 9.986 5.986 9.589 6.954 8.416 6.954 C 7.572 6.954 6.748 6.441 6.748 5.462 C 6.749 3.846 8.881 3.777 9.706 3.777 Z M 8.619 6.2 C 9.415 6.2 9.928 5.367 9.928 4.641 L 9.928 4.485 L 9.686 4.485 C 8.979 4.485 7.699 4.534 7.699 5.415 C 7.699 5.812 8.008 6.2 8.619 6.2 Z" fill="rgb(10, 10, 10)"></path><path d="M 12.44 2.761 L 11.8 2.761 L 11.8 2.006 L 12.469 2.006 L 12.469 0.591 L 13.381 0.591 L 13.381 2.006 L 14.563 2.006 L 14.563 2.761 L 13.381 2.761 L 13.381 4.941 C 13.381 5.918 14.069 6.045 14.428 6.045 C 14.564 6.045 14.651 6.025 14.651 6.025 L 14.651 6.859 C 14.651 6.859 14.515 6.878 14.321 6.878 C 13.69 6.878 12.439 6.684 12.439 5.048 L 12.439 2.761 Z" fill="rgb(10, 10, 10)"></path><path d="M 15.699 0 L 16.648 0 L 16.648 0.958 L 15.699 0.958 Z M 15.708 1.937 L 16.648 1.937 L 16.648 6.839 L 15.708 6.839 Z" fill="rgb(10, 10, 10)"></path><path d="M 20.41 1.822 C 21.875 1.822 23.057 2.897 23.057 4.379 C 23.057 5.871 21.875 6.956 20.41 6.956 C 18.946 6.956 17.763 5.871 17.763 4.379 C 17.763 2.896 18.946 1.822 20.41 1.822 Z M 20.41 6.141 C 21.341 6.141 22.098 5.405 22.098 4.378 C 22.098 3.361 21.342 2.635 20.41 2.635 C 19.489 2.635 18.723 3.361 18.723 4.378 C 18.724 5.405 19.489 6.141 20.41 6.141 Z" fill="rgb(10, 10, 10)"></path><path d="M 24.172 1.937 L 25.083 1.937 L 25.083 2.586 C 25.083 2.78 25.064 2.945 25.064 2.945 L 25.083 2.945 C 25.277 2.519 25.86 1.822 26.925 1.822 C 28.079 1.822 28.613 2.452 28.613 3.701 L 28.613 6.839 L 27.672 6.839 L 27.672 3.915 C 27.672 3.227 27.527 2.684 26.742 2.684 C 25.996 2.684 25.394 3.178 25.191 3.885 C 25.133 4.078 25.114 4.301 25.114 4.543 L 25.114 6.839 L 24.173 6.839 L 24.173 1.937 Z" fill="rgb(10, 10, 10)"></path><path d="M 32.579 3.777 L 32.793 3.777 L 32.793 3.691 C 32.793 2.886 32.337 2.615 31.716 2.615 C 30.961 2.615 30.35 3.09 30.35 3.09 L 29.961 2.402 C 29.961 2.402 30.669 1.821 31.794 1.821 C 33.035 1.821 33.733 2.499 33.733 3.739 L 33.733 6.838 L 32.86 6.838 L 32.86 6.373 C 32.86 6.151 32.88 5.986 32.88 5.986 L 32.86 5.986 C 32.86 5.986 32.463 6.954 31.29 6.954 C 30.446 6.954 29.622 6.441 29.622 5.462 C 29.622 3.846 31.755 3.777 32.579 3.777 Z M 31.493 6.2 C 32.289 6.2 32.802 5.367 32.802 4.641 L 32.802 4.485 L 32.56 4.485 C 31.853 4.485 30.573 4.534 30.573 5.415 C 30.573 5.812 30.882 6.2 31.493 6.2 Z" fill="rgb(10, 10, 10)"></path><path d="M 35.081 0 L 36.021 0 L 36.021 5.338 C 36.021 5.929 36.253 6.035 36.544 6.035 C 36.631 6.035 36.709 6.025 36.709 6.025 L 36.709 6.859 C 36.709 6.859 36.563 6.878 36.399 6.878 C 35.866 6.878 35.081 6.732 35.081 5.503 Z" fill="rgb(10, 10, 10)"></path></g><g transform="translate(82.265 31.127)"><path d="M 0 0 L 2.095 0 C 2.812 0 3.113 0.058 3.375 0.155 C 4.073 0.417 4.529 1.104 4.529 2.006 C 4.529 2.878 4.044 3.614 3.297 3.856 L 3.297 3.875 C 3.297 3.875 3.374 3.962 3.5 4.184 L 4.955 6.838 L 3.869 6.838 L 2.424 4.116 L 0.959 4.116 L 0.959 6.838 L 0 6.838 Z M 2.337 3.284 C 3.083 3.284 3.55 2.809 3.55 2.043 C 3.55 1.54 3.356 1.181 3.007 0.987 C 2.823 0.891 2.6 0.832 2.067 0.832 L 0.962 0.832 L 0.962 3.282 L 2.337 3.282 Z" fill="rgb(10, 10, 10)"></path><path d="M 8.135 1.821 C 9.521 1.821 10.259 2.848 10.259 4.116 C 10.259 4.242 10.23 4.523 10.23 4.523 L 6.652 4.523 C 6.701 5.598 7.467 6.14 8.34 6.14 C 9.184 6.14 9.795 5.568 9.795 5.568 L 10.183 6.255 C 10.183 6.255 9.456 6.953 8.282 6.953 C 6.74 6.953 5.683 5.839 5.683 4.385 C 5.682 2.829 6.739 1.821 8.135 1.821 Z M 9.298 3.816 C 9.269 2.973 8.745 2.566 8.116 2.566 C 7.398 2.566 6.816 3.012 6.68 3.816 Z" fill="rgb(10, 10, 10)"></path><path d="M 13.187 8.059 C 14.04 8.059 14.738 7.681 14.738 6.684 L 14.738 6.325 C 14.738 6.17 14.747 6.016 14.747 6.016 L 14.728 6.016 C 14.438 6.5 13.982 6.782 13.273 6.782 C 11.906 6.782 11.082 5.687 11.082 4.272 C 11.082 2.868 11.868 1.822 13.225 1.822 C 14.408 1.822 14.767 2.548 14.767 2.548 L 14.786 2.548 C 14.786 2.548 14.776 2.481 14.776 2.393 L 14.776 1.937 L 15.678 1.937 L 15.678 6.636 C 15.678 8.253 14.446 8.873 13.206 8.873 C 12.614 8.873 12.004 8.708 11.528 8.466 L 11.838 7.731 C 11.839 7.729 12.45 8.059 13.187 8.059 Z M 14.757 4.281 C 14.757 3.002 14.136 2.633 13.371 2.633 C 12.518 2.633 12.033 3.254 12.033 4.251 C 12.033 5.268 12.575 5.965 13.459 5.965 C 14.136 5.966 14.757 5.559 14.757 4.281 Z" fill="rgb(10, 10, 10)"></path><path d="M 17.143 0 L 18.092 0 L 18.092 0.958 L 17.143 0.958 Z M 17.152 1.937 L 18.092 1.937 L 18.092 6.839 L 17.152 6.839 Z" fill="rgb(10, 10, 10)"></path><path d="M 21.855 1.821 C 23.32 1.821 24.502 2.896 24.502 4.378 C 24.502 5.87 23.32 6.955 21.855 6.955 C 20.391 6.955 19.209 5.87 19.209 4.378 C 19.209 2.896 20.391 1.821 21.855 1.821 Z M 21.855 6.141 C 22.786 6.141 23.543 5.405 23.543 4.378 C 23.543 3.361 22.786 2.635 21.855 2.635 C 20.935 2.635 20.168 3.361 20.168 4.378 C 20.168 5.404 20.935 6.141 21.855 6.141 Z" fill="rgb(10, 10, 10)"></path><path d="M 25.617 1.937 L 26.529 1.937 L 26.529 2.586 C 26.529 2.78 26.509 2.945 26.509 2.945 L 26.529 2.945 C 26.723 2.519 27.305 1.822 28.37 1.822 C 29.524 1.822 30.058 2.452 30.058 3.701 L 30.058 6.839 L 29.118 6.839 L 29.118 3.915 C 29.118 3.227 28.972 2.684 28.187 2.684 C 27.441 2.684 26.84 3.178 26.636 3.885 C 26.578 4.078 26.559 4.301 26.559 4.543 L 26.559 6.839 L 25.619 6.839 L 25.619 1.937 Z" fill="rgb(10, 10, 10)"></path></g></g></svg>